<?xml version="1.0" encoding="UTF-8"?>
<svg xmlns="http://www.w3.org/2000/svg" xmlns:xlink="http://www.w3.org/1999/xlink" width="1190.5512pt" height="1683.7796pt" viewBox="0 0 1190.5512 1683.7796" version="1.2">
<g id="surface26">
<path style="fill:none;stroke-width:1;stroke-linecap:butt;stroke-linejoin:miter;stroke:rgb(89.4104%,68.626404%,3.921509%);stroke-opacity:1;stroke-miterlimit:10;" d="M 283.208984 3402.499044 L 298.9375 3402.499044 " transform="matrix(2,0,0,2,36,-5929.0684)"/>
<path style="fill:none;stroke-width:1;stroke-linecap:butt;stroke-linejoin:miter;stroke:rgb(89.4104%,68.626404%,3.921509%);stroke-opacity:1;stroke-miterlimit:10;" d="M 301.957031 3402.499044 L 315.15625 3402.499044 " transform="matrix(2,0,0,2,36,-5929.0684)"/>
<path style="fill:none;stroke-width:1;stroke-linecap:butt;stroke-linejoin:miter;stroke:rgb(89.4104%,68.626404%,3.921509%);stroke-opacity:1;stroke-miterlimit:10;" d="M 321.984375 3402.499044 L 365.658203 3402.499044 " transform="matrix(2,0,0,2,36,-5929.0684)"/>
<path style="fill:none;stroke-width:1;stroke-linecap:butt;stroke-linejoin:miter;stroke:rgb(89.4104%,68.626404%,3.921509%);stroke-opacity:1;stroke-miterlimit:10;" d="M 368.677734 3402.499044 L 395.839844 3402.499044 " transform="matrix(2,0,0,2,36,-5929.0684)"/>
<path style="fill:none;stroke-width:1;stroke-linecap:butt;stroke-linejoin:miter;stroke:rgb(89.4104%,68.626404%,3.921509%);stroke-opacity:1;stroke-miterlimit:10;" d="M 403.146484 3402.499044 L 436.574219 3402.499044 " transform="matrix(2,0,0,2,36,-5929.0684)"/>
<path style="fill:none;stroke-width:1;stroke-linecap:butt;stroke-linejoin:miter;stroke:rgb(89.4104%,68.626404%,3.921509%);stroke-opacity:1;stroke-miterlimit:10;" d="M 439.746094 3402.499044 L 471.8125 3402.499044 " transform="matrix(2,0,0,2,36,-5929.0684)"/>
<path style="fill:none;stroke-width:1;stroke-linecap:butt;stroke-linejoin:miter;stroke:rgb(89.4104%,68.626404%,3.921509%);stroke-opacity:1;stroke-miterlimit:10;" d="M 474.832031 3402.499044 L 529.046875 3402.499044 " transform="matrix(2,0,0,2,36,-5929.0684)"/>
<path style="fill:none;stroke-width:1;stroke-linecap:butt;stroke-linejoin:miter;stroke:rgb(89.4104%,68.626404%,3.921509%);stroke-opacity:1;stroke-miterlimit:10;" d="M 5 3421.499044 L 41.933594 3421.499044 " transform="matrix(2,0,0,2,36,-5929.0684)"/>
<path style="fill:none;stroke-width:1;stroke-linecap:butt;stroke-linejoin:miter;stroke:rgb(89.4104%,68.626404%,3.921509%);stroke-opacity:1;stroke-miterlimit:10;" d="M 44.939453 3421.499044 L 105.71875 3421.499044 " transform="matrix(2,0,0,2,36,-5929.0684)"/>
<path style="fill:none;stroke-width:1;stroke-linecap:butt;stroke-linejoin:miter;stroke:rgb(89.4104%,68.626404%,3.921509%);stroke-opacity:1;stroke-miterlimit:10;" d="M 108.724609 3421.499044 L 185.558594 3421.499044 " transform="matrix(2,0,0,2,36,-5929.0684)"/>
<path style="fill:none;stroke-width:1;stroke-linecap:butt;stroke-linejoin:miter;stroke:rgb(89.4104%,68.626404%,3.921509%);stroke-opacity:1;stroke-miterlimit:10;" d="M 89.638672 3475.499044 L 105.367188 3475.499044 " transform="matrix(2,0,0,2,36,-5929.0684)"/>
<path style="fill:none;stroke-width:1;stroke-linecap:butt;stroke-linejoin:miter;stroke:rgb(89.4104%,68.626404%,3.921509%);stroke-opacity:1;stroke-miterlimit:10;" d="M 108.386719 3475.499044 L 121.603516 3475.499044 " transform="matrix(2,0,0,2,36,-5929.0684)"/>
<path style="fill:none;stroke-width:1;stroke-linecap:butt;stroke-linejoin:miter;stroke:rgb(89.4104%,68.626404%,3.921509%);stroke-opacity:1;stroke-miterlimit:10;" d="M 128.482422 3475.499044 L 249.736328 3475.499044 " transform="matrix(2,0,0,2,36,-5929.0684)"/>
<path style="fill:none;stroke-width:1;stroke-linecap:butt;stroke-linejoin:miter;stroke:rgb(89.4104%,68.626404%,3.921509%);stroke-opacity:1;stroke-miterlimit:10;" d="M 252.958984 3475.499044 L 288.935547 3475.499044 " transform="matrix(2,0,0,2,36,-5929.0684)"/>
<path style="fill:none;stroke-width:1;stroke-linecap:butt;stroke-linejoin:miter;stroke:rgb(89.4104%,68.626404%,3.921509%);stroke-opacity:1;stroke-miterlimit:10;" d="M 292.158203 3475.499044 L 306.449219 3475.499044 " transform="matrix(2,0,0,2,36,-5929.0684)"/>
<path style="fill:none;stroke-width:1;stroke-linecap:butt;stroke-linejoin:miter;stroke:rgb(89.4104%,68.626404%,3.921509%);stroke-opacity:1;stroke-miterlimit:10;" d="M 309.671875 3475.499044 L 369.994141 3475.499044 " transform="matrix(2,0,0,2,36,-5929.0684)"/>
<path style="fill:none;stroke-width:1;stroke-linecap:butt;stroke-linejoin:miter;stroke:rgb(27.058411%,27.058411%,27.058411%);stroke-opacity:1;stroke-miterlimit:10;" d="M 5 3512.499044 L 72.228516 3512.499044 " transform="matrix(2,0,0,2,36,-5929.0684)"/>
<path style="fill:none;stroke-width:1;stroke-linecap:butt;stroke-linejoin:miter;stroke:rgb(27.058411%,27.058411%,27.058411%);stroke-opacity:1;stroke-miterlimit:10;" d="M 78.982422 3512.499044 L 82.804688 3512.499044 " transform="matrix(2,0,0,2,36,-5929.0684)"/>
<path style="fill:none;stroke-width:1;stroke-linecap:butt;stroke-linejoin:miter;stroke:rgb(27.058411%,27.058411%,27.058411%);stroke-opacity:1;stroke-miterlimit:10;" d="M 87.433594 3512.499044 L 162.558594 3512.499044 " transform="matrix(2,0,0,2,36,-5929.0684)"/>
</g>
</svg>
