<?xml version="1.0" encoding="UTF-8"?>
<svg xmlns="http://www.w3.org/2000/svg" xmlns:xlink="http://www.w3.org/1999/xlink" width="1190.5512pt" height="1683.7796pt" viewBox="0 0 1190.5512 1683.7796" version="1.2">
<defs>
<clipPath id="clip1">
  <path d="M 46 1472 L 48 1472 L 48 1603.785156 L 46 1603.785156 Z M 46 1472 "/>
</clipPath>
<clipPath id="clip2">
  <path d="M 412 1472 L 414 1472 L 414 1603.785156 L 412 1603.785156 Z M 412 1472 "/>
</clipPath>
<clipPath id="clip3">
  <path d="M 778 1472 L 780 1472 L 780 1603.785156 L 778 1603.785156 Z M 778 1472 "/>
</clipPath>
<clipPath id="clip4">
  <path d="M 1144 1472 L 1146 1472 L 1146 1603.785156 L 1144 1603.785156 Z M 1144 1472 "/>
</clipPath>
</defs>
<g id="surface38">
<path style=" stroke:none;fill-rule:nonzero;fill:rgb(66.665649%,66.665649%,66.665649%);fill-opacity:1;" d="M 47 702.882812 L 47.050781 702.882812 C 47.441406 702.882812 47.792969 703.128906 47.925781 703.496094 C 48 703.734375 48 703.953125 48 704.394531 L 48 743.125 C 48 751.230469 48 751.449219 47.925781 751.6875 C 47.792969 752.054688 47.441406 752.296875 47.050781 752.296875 C 47 752.296875 47 752.296875 47 752.296875 L 46.949219 752.296875 C 46.558594 752.296875 46.207031 752.054688 46.074219 751.6875 C 46 751.449219 46 751.230469 46 750.789062 L 46 712.054688 C 46 703.953125 46 703.734375 46.074219 703.496094 C 46.207031 703.128906 46.558594 702.882812 46.949219 702.882812 C 47 702.882812 47 702.882812 47 702.882812 "/>
<path style=" stroke:none;fill-rule:nonzero;fill:rgb(66.665649%,66.665649%,66.665649%);fill-opacity:1;" d="M 57.171875 702.882812 L 402.828125 702.882812 C 410.929688 702.882812 411.152344 702.882812 411.386719 702.960938 C 411.753906 703.09375 412 703.441406 412 703.835938 C 412 703.882812 412 703.882812 412 703.882812 L 412 703.933594 C 412 704.324219 411.753906 704.675781 411.386719 704.808594 C 411.152344 704.882812 410.929688 704.882812 410.488281 704.882812 L 57.171875 704.882812 C 49.070312 704.882812 48.851562 704.882812 48.613281 704.808594 C 48.246094 704.675781 48 704.324219 48 703.933594 C 48 703.882812 48 703.882812 48 703.882812 L 48 703.835938 C 48 703.441406 48.246094 703.09375 48.613281 702.960938 C 48.851562 702.882812 49.070312 702.882812 49.511719 702.882812 L 57.171875 702.882812 "/>
<path style=" stroke:none;fill-rule:nonzero;fill:rgb(66.665649%,66.665649%,66.665649%);fill-opacity:1;" d="M 413 702.882812 L 413.050781 702.882812 C 413.441406 702.882812 413.792969 703.128906 413.925781 703.496094 C 414 703.734375 414 703.953125 414 704.394531 L 414 743.125 C 414 751.230469 414 751.449219 413.925781 751.6875 C 413.792969 752.054688 413.441406 752.296875 413.050781 752.296875 C 413 752.296875 413 752.296875 413 752.296875 L 412.949219 752.296875 C 412.558594 752.296875 412.207031 752.054688 412.074219 751.6875 C 412 751.449219 412 751.230469 412 750.789062 L 412 712.054688 C 412 703.953125 412 703.734375 412.074219 703.496094 C 412.207031 703.128906 412.558594 702.882812 412.949219 702.882812 C 413 702.882812 413 702.882812 413 702.882812 "/>
<path style=" stroke:none;fill-rule:nonzero;fill:rgb(66.665649%,66.665649%,66.665649%);fill-opacity:1;" d="M 57.171875 750.296875 L 402.828125 750.296875 C 410.929688 750.296875 411.152344 750.296875 411.386719 750.375 C 411.753906 750.507812 412 750.855469 412 751.25 C 412 751.296875 412 751.296875 412 751.296875 L 412 751.347656 C 412 751.738281 411.753906 752.089844 411.386719 752.222656 C 411.152344 752.296875 410.929688 752.296875 410.488281 752.296875 L 57.171875 752.296875 C 49.070312 752.296875 48.851562 752.296875 48.613281 752.222656 C 48.246094 752.089844 48 751.738281 48 751.347656 C 48 751.296875 48 751.296875 48 751.296875 L 48 751.25 C 48 750.855469 48.246094 750.507812 48.613281 750.375 C 48.851562 750.296875 49.070312 750.296875 49.511719 750.296875 L 57.171875 750.296875 "/>
<path style=" stroke:none;fill-rule:nonzero;fill:rgb(66.665649%,66.665649%,66.665649%);fill-opacity:1;" d="M 413 702.882812 L 413.050781 702.882812 C 413.441406 702.882812 413.792969 703.128906 413.925781 703.496094 C 414 703.734375 414 703.953125 414 704.394531 L 414 743.125 C 414 751.230469 414 751.449219 413.925781 751.6875 C 413.792969 752.054688 413.441406 752.296875 413.050781 752.296875 C 413 752.296875 413 752.296875 413 752.296875 L 412.949219 752.296875 C 412.558594 752.296875 412.207031 752.054688 412.074219 751.6875 C 412 751.449219 412 751.230469 412 750.789062 L 412 712.054688 C 412 703.953125 412 703.734375 412.074219 703.496094 C 412.207031 703.128906 412.558594 702.882812 412.949219 702.882812 C 413 702.882812 413 702.882812 413 702.882812 "/>
<path style=" stroke:none;fill-rule:nonzero;fill:rgb(66.665649%,66.665649%,66.665649%);fill-opacity:1;" d="M 423.171875 702.882812 L 768.828125 702.882812 C 776.929688 702.882812 777.152344 702.882812 777.386719 702.960938 C 777.753906 703.09375 778 703.441406 778 703.835938 C 778 703.882812 778 703.882812 778 703.882812 L 778 703.933594 C 778 704.324219 777.753906 704.675781 777.386719 704.808594 C 777.152344 704.882812 776.929688 704.882812 776.488281 704.882812 L 423.171875 704.882812 C 415.070312 704.882812 414.847656 704.882812 414.613281 704.808594 C 414.246094 704.675781 414 704.324219 414 703.933594 C 414 703.882812 414 703.882812 414 703.882812 L 414 703.835938 C 414 703.441406 414.246094 703.09375 414.613281 702.960938 C 414.847656 702.882812 415.070312 702.882812 415.511719 702.882812 L 423.171875 702.882812 "/>
<path style=" stroke:none;fill-rule:nonzero;fill:rgb(66.665649%,66.665649%,66.665649%);fill-opacity:1;" d="M 779 702.882812 L 779.050781 702.882812 C 779.441406 702.882812 779.792969 703.128906 779.925781 703.496094 C 780 703.734375 780 703.953125 780 704.394531 L 780 743.125 C 780 751.230469 780 751.449219 779.925781 751.6875 C 779.792969 752.054688 779.441406 752.296875 779.050781 752.296875 C 779 752.296875 779 752.296875 779 752.296875 L 778.949219 752.296875 C 778.558594 752.296875 778.207031 752.054688 778.074219 751.6875 C 778 751.449219 778 751.230469 778 750.789062 L 778 712.054688 C 778 703.953125 778 703.734375 778.074219 703.496094 C 778.207031 703.128906 778.558594 702.882812 778.949219 702.882812 C 779 702.882812 779 702.882812 779 702.882812 "/>
<path style=" stroke:none;fill-rule:nonzero;fill:rgb(66.665649%,66.665649%,66.665649%);fill-opacity:1;" d="M 423.171875 750.296875 L 768.828125 750.296875 C 776.929688 750.296875 777.152344 750.296875 777.386719 750.375 C 777.753906 750.507812 778 750.855469 778 751.25 C 778 751.296875 778 751.296875 778 751.296875 L 778 751.347656 C 778 751.738281 777.753906 752.089844 777.386719 752.222656 C 777.152344 752.296875 776.929688 752.296875 776.488281 752.296875 L 423.171875 752.296875 C 415.070312 752.296875 414.847656 752.296875 414.613281 752.222656 C 414.246094 752.089844 414 751.738281 414 751.347656 C 414 751.296875 414 751.296875 414 751.296875 L 414 751.25 C 414 750.855469 414.246094 750.507812 414.613281 750.375 C 414.847656 750.296875 415.070312 750.296875 415.511719 750.296875 L 423.171875 750.296875 "/>
<path style=" stroke:none;fill-rule:nonzero;fill:rgb(66.665649%,66.665649%,66.665649%);fill-opacity:1;" d="M 779 702.882812 L 779.050781 702.882812 C 779.441406 702.882812 779.792969 703.128906 779.925781 703.496094 C 780 703.734375 780 703.953125 780 704.394531 L 780 743.125 C 780 751.230469 780 751.449219 779.925781 751.6875 C 779.792969 752.054688 779.441406 752.296875 779.050781 752.296875 C 779 752.296875 779 752.296875 779 752.296875 L 778.949219 752.296875 C 778.558594 752.296875 778.207031 752.054688 778.074219 751.6875 C 778 751.449219 778 751.230469 778 750.789062 L 778 712.054688 C 778 703.953125 778 703.734375 778.074219 703.496094 C 778.207031 703.128906 778.558594 702.882812 778.949219 702.882812 C 779 702.882812 779 702.882812 779 702.882812 "/>
<path style=" stroke:none;fill-rule:nonzero;fill:rgb(66.665649%,66.665649%,66.665649%);fill-opacity:1;" d="M 789.171875 702.882812 L 1134.828125 702.882812 C 1142.929688 702.882812 1143.152344 702.882812 1143.386719 702.960938 C 1143.753906 703.09375 1144 703.441406 1144 703.835938 C 1144 703.882812 1144 703.882812 1144 703.882812 L 1144 703.933594 C 1144 704.324219 1143.753906 704.675781 1143.386719 704.808594 C 1143.152344 704.882812 1142.929688 704.882812 1142.488281 704.882812 L 789.171875 704.882812 C 781.070312 704.882812 780.847656 704.882812 780.613281 704.808594 C 780.246094 704.675781 780 704.324219 780 703.933594 C 780 703.882812 780 703.882812 780 703.882812 L 780 703.835938 C 780 703.441406 780.246094 703.09375 780.613281 702.960938 C 780.847656 702.882812 781.070312 702.882812 781.511719 702.882812 L 789.171875 702.882812 "/>
<path style=" stroke:none;fill-rule:nonzero;fill:rgb(66.665649%,66.665649%,66.665649%);fill-opacity:1;" d="M 1145 702.882812 L 1145.050781 702.882812 C 1145.441406 702.882812 1145.792969 703.128906 1145.925781 703.496094 C 1146 703.734375 1146 703.953125 1146 704.394531 L 1146 743.125 C 1146 751.230469 1146 751.449219 1145.925781 751.6875 C 1145.792969 752.054688 1145.441406 752.296875 1145.050781 752.296875 C 1145 752.296875 1145 752.296875 1145 752.296875 L 1144.949219 752.296875 C 1144.558594 752.296875 1144.207031 752.054688 1144.074219 751.6875 C 1144 751.449219 1144 751.230469 1144 750.789062 L 1144 712.054688 C 1144 703.953125 1144 703.734375 1144.074219 703.496094 C 1144.207031 703.128906 1144.558594 702.882812 1144.949219 702.882812 C 1145 702.882812 1145 702.882812 1145 702.882812 "/>
<path style=" stroke:none;fill-rule:nonzero;fill:rgb(66.665649%,66.665649%,66.665649%);fill-opacity:1;" d="M 789.171875 750.296875 L 1134.828125 750.296875 C 1142.929688 750.296875 1143.152344 750.296875 1143.386719 750.375 C 1143.753906 750.507812 1144 750.855469 1144 751.25 C 1144 751.296875 1144 751.296875 1144 751.296875 L 1144 751.347656 C 1144 751.738281 1143.753906 752.089844 1143.386719 752.222656 C 1143.152344 752.296875 1142.929688 752.296875 1142.488281 752.296875 L 789.171875 752.296875 C 781.070312 752.296875 780.847656 752.296875 780.613281 752.222656 C 780.246094 752.089844 780 751.738281 780 751.347656 C 780 751.296875 780 751.296875 780 751.296875 L 780 751.25 C 780 750.855469 780.246094 750.507812 780.613281 750.375 C 780.847656 750.296875 781.070312 750.296875 781.511719 750.296875 L 789.171875 750.296875 "/>
<path style=" stroke:none;fill-rule:nonzero;fill:rgb(66.665649%,66.665649%,66.665649%);fill-opacity:1;" d="M 47 750.296875 L 47.050781 750.296875 C 47.441406 750.296875 47.792969 750.542969 47.925781 750.910156 C 48 751.148438 48 751.367188 48 751.808594 L 48 1121.851562 C 48 1129.957031 48 1130.175781 47.925781 1130.414062 C 47.792969 1130.78125 47.441406 1131.023438 47.050781 1131.023438 C 47 1131.023438 47 1131.023438 47 1131.023438 L 46.949219 1131.023438 C 46.558594 1131.023438 46.207031 1130.78125 46.074219 1130.414062 C 46 1130.175781 46 1129.957031 46 1129.515625 L 46 759.46875 C 46 751.367188 46 751.148438 46.074219 750.910156 C 46.207031 750.542969 46.558594 750.296875 46.949219 750.296875 C 47 750.296875 47 750.296875 47 750.296875 "/>
<path style=" stroke:none;fill-rule:nonzero;fill:rgb(66.665649%,66.665649%,66.665649%);fill-opacity:1;" d="M 57.171875 750.296875 L 402.828125 750.296875 C 410.929688 750.296875 411.152344 750.296875 411.386719 750.375 C 411.753906 750.507812 412 750.855469 412 751.25 C 412 751.296875 412 751.296875 412 751.296875 L 412 751.347656 C 412 751.738281 411.753906 752.089844 411.386719 752.222656 C 411.152344 752.296875 410.929688 752.296875 410.488281 752.296875 L 57.171875 752.296875 C 49.070312 752.296875 48.851562 752.296875 48.613281 752.222656 C 48.246094 752.089844 48 751.738281 48 751.347656 C 48 751.296875 48 751.296875 48 751.296875 L 48 751.25 C 48 750.855469 48.246094 750.507812 48.613281 750.375 C 48.851562 750.296875 49.070312 750.296875 49.511719 750.296875 L 57.171875 750.296875 "/>
<path style=" stroke:none;fill-rule:nonzero;fill:rgb(66.665649%,66.665649%,66.665649%);fill-opacity:1;" d="M 413 750.296875 L 413.050781 750.296875 C 413.441406 750.296875 413.792969 750.542969 413.925781 750.910156 C 414 751.148438 414 751.367188 414 751.808594 L 414 1121.851562 C 414 1129.957031 414 1130.175781 413.925781 1130.414062 C 413.792969 1130.78125 413.441406 1131.023438 413.050781 1131.023438 C 413 1131.023438 413 1131.023438 413 1131.023438 L 412.949219 1131.023438 C 412.558594 1131.023438 412.207031 1130.78125 412.074219 1130.414062 C 412 1130.175781 412 1129.957031 412 1129.515625 L 412 759.46875 C 412 751.367188 412 751.148438 412.074219 750.910156 C 412.207031 750.542969 412.558594 750.296875 412.949219 750.296875 C 413 750.296875 413 750.296875 413 750.296875 "/>
<path style=" stroke:none;fill-rule:nonzero;fill:rgb(66.665649%,66.665649%,66.665649%);fill-opacity:1;" d="M 57.171875 1129.023438 L 402.828125 1129.023438 C 410.929688 1129.023438 411.152344 1129.023438 411.386719 1129.101562 C 411.753906 1129.234375 412 1129.582031 412 1129.976562 C 412 1130.023438 412 1130.023438 412 1130.023438 L 412 1130.074219 C 412 1130.464844 411.753906 1130.816406 411.386719 1130.949219 C 411.152344 1131.023438 410.929688 1131.023438 410.488281 1131.023438 L 57.171875 1131.023438 C 49.070312 1131.023438 48.851562 1131.023438 48.613281 1130.949219 C 48.246094 1130.816406 48 1130.464844 48 1130.074219 C 48 1130.023438 48 1130.023438 48 1130.023438 L 48 1129.976562 C 48 1129.582031 48.246094 1129.234375 48.613281 1129.101562 C 48.851562 1129.023438 49.070312 1129.023438 49.511719 1129.023438 L 57.171875 1129.023438 "/>
<path style=" stroke:none;fill-rule:nonzero;fill:rgb(66.665649%,66.665649%,66.665649%);fill-opacity:1;" d="M 413 750.296875 L 413.050781 750.296875 C 413.441406 750.296875 413.792969 750.542969 413.925781 750.910156 C 414 751.148438 414 751.367188 414 751.808594 L 414 1121.851562 C 414 1129.957031 414 1130.175781 413.925781 1130.414062 C 413.792969 1130.78125 413.441406 1131.023438 413.050781 1131.023438 C 413 1131.023438 413 1131.023438 413 1131.023438 L 412.949219 1131.023438 C 412.558594 1131.023438 412.207031 1130.78125 412.074219 1130.414062 C 412 1130.175781 412 1129.957031 412 1129.515625 L 412 759.46875 C 412 751.367188 412 751.148438 412.074219 750.910156 C 412.207031 750.542969 412.558594 750.296875 412.949219 750.296875 C 413 750.296875 413 750.296875 413 750.296875 "/>
<path style=" stroke:none;fill-rule:nonzero;fill:rgb(66.665649%,66.665649%,66.665649%);fill-opacity:1;" d="M 423.171875 750.296875 L 768.828125 750.296875 C 776.929688 750.296875 777.152344 750.296875 777.386719 750.375 C 777.753906 750.507812 778 750.855469 778 751.25 C 778 751.296875 778 751.296875 778 751.296875 L 778 751.347656 C 778 751.738281 777.753906 752.089844 777.386719 752.222656 C 777.152344 752.296875 776.929688 752.296875 776.488281 752.296875 L 423.171875 752.296875 C 415.070312 752.296875 414.847656 752.296875 414.613281 752.222656 C 414.246094 752.089844 414 751.738281 414 751.347656 C 414 751.296875 414 751.296875 414 751.296875 L 414 751.25 C 414 750.855469 414.246094 750.507812 414.613281 750.375 C 414.847656 750.296875 415.070312 750.296875 415.511719 750.296875 L 423.171875 750.296875 "/>
<path style=" stroke:none;fill-rule:nonzero;fill:rgb(66.665649%,66.665649%,66.665649%);fill-opacity:1;" d="M 779 750.296875 L 779.050781 750.296875 C 779.441406 750.296875 779.792969 750.542969 779.925781 750.910156 C 780 751.148438 780 751.367188 780 751.808594 L 780 1121.851562 C 780 1129.957031 780 1130.175781 779.925781 1130.414062 C 779.792969 1130.78125 779.441406 1131.023438 779.050781 1131.023438 C 779 1131.023438 779 1131.023438 779 1131.023438 L 778.949219 1131.023438 C 778.558594 1131.023438 778.207031 1130.78125 778.074219 1130.414062 C 778 1130.175781 778 1129.957031 778 1129.515625 L 778 759.46875 C 778 751.367188 778 751.148438 778.074219 750.910156 C 778.207031 750.542969 778.558594 750.296875 778.949219 750.296875 C 779 750.296875 779 750.296875 779 750.296875 "/>
<path style=" stroke:none;fill-rule:nonzero;fill:rgb(66.665649%,66.665649%,66.665649%);fill-opacity:1;" d="M 423.171875 1129.023438 L 768.828125 1129.023438 C 776.929688 1129.023438 777.152344 1129.023438 777.386719 1129.101562 C 777.753906 1129.234375 778 1129.582031 778 1129.976562 C 778 1130.023438 778 1130.023438 778 1130.023438 L 778 1130.074219 C 778 1130.464844 777.753906 1130.816406 777.386719 1130.949219 C 777.152344 1131.023438 776.929688 1131.023438 776.488281 1131.023438 L 423.171875 1131.023438 C 415.070312 1131.023438 414.847656 1131.023438 414.613281 1130.949219 C 414.246094 1130.816406 414 1130.464844 414 1130.074219 C 414 1130.023438 414 1130.023438 414 1130.023438 L 414 1129.976562 C 414 1129.582031 414.246094 1129.234375 414.613281 1129.101562 C 414.847656 1129.023438 415.070312 1129.023438 415.511719 1129.023438 L 423.171875 1129.023438 "/>
<path style=" stroke:none;fill-rule:nonzero;fill:rgb(66.665649%,66.665649%,66.665649%);fill-opacity:1;" d="M 779 750.296875 L 779.050781 750.296875 C 779.441406 750.296875 779.792969 750.542969 779.925781 750.910156 C 780 751.148438 780 751.367188 780 751.808594 L 780 1121.851562 C 780 1129.957031 780 1130.175781 779.925781 1130.414062 C 779.792969 1130.78125 779.441406 1131.023438 779.050781 1131.023438 C 779 1131.023438 779 1131.023438 779 1131.023438 L 778.949219 1131.023438 C 778.558594 1131.023438 778.207031 1130.78125 778.074219 1130.414062 C 778 1130.175781 778 1129.957031 778 1129.515625 L 778 759.46875 C 778 751.367188 778 751.148438 778.074219 750.910156 C 778.207031 750.542969 778.558594 750.296875 778.949219 750.296875 C 779 750.296875 779 750.296875 779 750.296875 "/>
<path style=" stroke:none;fill-rule:nonzero;fill:rgb(66.665649%,66.665649%,66.665649%);fill-opacity:1;" d="M 789.171875 750.296875 L 1134.828125 750.296875 C 1142.929688 750.296875 1143.152344 750.296875 1143.386719 750.375 C 1143.753906 750.507812 1144 750.855469 1144 751.25 C 1144 751.296875 1144 751.296875 1144 751.296875 L 1144 751.347656 C 1144 751.738281 1143.753906 752.089844 1143.386719 752.222656 C 1143.152344 752.296875 1142.929688 752.296875 1142.488281 752.296875 L 789.171875 752.296875 C 781.070312 752.296875 780.847656 752.296875 780.613281 752.222656 C 780.246094 752.089844 780 751.738281 780 751.347656 C 780 751.296875 780 751.296875 780 751.296875 L 780 751.25 C 780 750.855469 780.246094 750.507812 780.613281 750.375 C 780.847656 750.296875 781.070312 750.296875 781.511719 750.296875 L 789.171875 750.296875 "/>
<path style=" stroke:none;fill-rule:nonzero;fill:rgb(66.665649%,66.665649%,66.665649%);fill-opacity:1;" d="M 1145 750.296875 L 1145.050781 750.296875 C 1145.441406 750.296875 1145.792969 750.542969 1145.925781 750.910156 C 1146 751.148438 1146 751.367188 1146 751.808594 L 1146 1121.851562 C 1146 1129.957031 1146 1130.175781 1145.925781 1130.414062 C 1145.792969 1130.78125 1145.441406 1131.023438 1145.050781 1131.023438 C 1145 1131.023438 1145 1131.023438 1145 1131.023438 L 1144.949219 1131.023438 C 1144.558594 1131.023438 1144.207031 1130.78125 1144.074219 1130.414062 C 1144 1130.175781 1144 1129.957031 1144 1129.515625 L 1144 759.46875 C 1144 751.367188 1144 751.148438 1144.074219 750.910156 C 1144.207031 750.542969 1144.558594 750.296875 1144.949219 750.296875 C 1145 750.296875 1145 750.296875 1145 750.296875 "/>
<path style=" stroke:none;fill-rule:nonzero;fill:rgb(66.665649%,66.665649%,66.665649%);fill-opacity:1;" d="M 789.171875 1129.023438 L 1134.828125 1129.023438 C 1142.929688 1129.023438 1143.152344 1129.023438 1143.386719 1129.101562 C 1143.753906 1129.234375 1144 1129.582031 1144 1129.976562 C 1144 1130.023438 1144 1130.023438 1144 1130.023438 L 1144 1130.074219 C 1144 1130.464844 1143.753906 1130.816406 1143.386719 1130.949219 C 1143.152344 1131.023438 1142.929688 1131.023438 1142.488281 1131.023438 L 789.171875 1131.023438 C 781.070312 1131.023438 780.847656 1131.023438 780.613281 1130.949219 C 780.246094 1130.816406 780 1130.464844 780 1130.074219 C 780 1130.023438 780 1130.023438 780 1130.023438 L 780 1129.976562 C 780 1129.582031 780.246094 1129.234375 780.613281 1129.101562 C 780.847656 1129.023438 781.070312 1129.023438 781.511719 1129.023438 L 789.171875 1129.023438 "/>
<path style=" stroke:none;fill-rule:nonzero;fill:rgb(66.665649%,66.665649%,66.665649%);fill-opacity:1;" d="M 47 1129.023438 L 47.050781 1129.023438 C 47.441406 1129.023438 47.792969 1129.269531 47.925781 1129.636719 C 48 1129.875 48 1130.09375 48 1130.535156 L 48 1334.921875 C 48 1343.027344 48 1343.246094 47.925781 1343.484375 C 47.792969 1343.851562 47.441406 1344.09375 47.050781 1344.09375 C 47 1344.09375 47 1344.09375 47 1344.09375 L 46.949219 1344.09375 C 46.558594 1344.09375 46.207031 1343.851562 46.074219 1343.484375 C 46 1343.246094 46 1343.027344 46 1342.585938 L 46 1138.195312 C 46 1130.09375 46 1129.875 46.074219 1129.636719 C 46.207031 1129.269531 46.558594 1129.023438 46.949219 1129.023438 C 47 1129.023438 47 1129.023438 47 1129.023438 "/>
<path style=" stroke:none;fill-rule:nonzero;fill:rgb(66.665649%,66.665649%,66.665649%);fill-opacity:1;" d="M 57.171875 1129.023438 L 402.828125 1129.023438 C 410.929688 1129.023438 411.152344 1129.023438 411.386719 1129.101562 C 411.753906 1129.234375 412 1129.582031 412 1129.976562 C 412 1130.023438 412 1130.023438 412 1130.023438 L 412 1130.074219 C 412 1130.464844 411.753906 1130.816406 411.386719 1130.949219 C 411.152344 1131.023438 410.929688 1131.023438 410.488281 1131.023438 L 57.171875 1131.023438 C 49.070312 1131.023438 48.851562 1131.023438 48.613281 1130.949219 C 48.246094 1130.816406 48 1130.464844 48 1130.074219 C 48 1130.023438 48 1130.023438 48 1130.023438 L 48 1129.976562 C 48 1129.582031 48.246094 1129.234375 48.613281 1129.101562 C 48.851562 1129.023438 49.070312 1129.023438 49.511719 1129.023438 L 57.171875 1129.023438 "/>
<path style=" stroke:none;fill-rule:nonzero;fill:rgb(66.665649%,66.665649%,66.665649%);fill-opacity:1;" d="M 413 1129.023438 L 413.050781 1129.023438 C 413.441406 1129.023438 413.792969 1129.269531 413.925781 1129.636719 C 414 1129.875 414 1130.09375 414 1130.535156 L 414 1334.921875 C 414 1343.027344 414 1343.246094 413.925781 1343.484375 C 413.792969 1343.851562 413.441406 1344.09375 413.050781 1344.09375 C 413 1344.09375 413 1344.09375 413 1344.09375 L 412.949219 1344.09375 C 412.558594 1344.09375 412.207031 1343.851562 412.074219 1343.484375 C 412 1343.246094 412 1343.027344 412 1342.585938 L 412 1138.195312 C 412 1130.09375 412 1129.875 412.074219 1129.636719 C 412.207031 1129.269531 412.558594 1129.023438 412.949219 1129.023438 C 413 1129.023438 413 1129.023438 413 1129.023438 "/>
<path style=" stroke:none;fill-rule:nonzero;fill:rgb(66.665649%,66.665649%,66.665649%);fill-opacity:1;" d="M 57.171875 1342.09375 L 402.828125 1342.09375 C 410.929688 1342.09375 411.152344 1342.09375 411.386719 1342.171875 C 411.753906 1342.304688 412 1342.652344 412 1343.046875 C 412 1343.09375 412 1343.09375 412 1343.09375 L 412 1343.144531 C 412 1343.535156 411.753906 1343.886719 411.386719 1344.019531 C 411.152344 1344.09375 410.929688 1344.09375 410.488281 1344.09375 L 57.171875 1344.09375 C 49.070312 1344.09375 48.851562 1344.09375 48.613281 1344.019531 C 48.246094 1343.886719 48 1343.535156 48 1343.144531 C 48 1343.09375 48 1343.09375 48 1343.09375 L 48 1343.046875 C 48 1342.652344 48.246094 1342.304688 48.613281 1342.171875 C 48.851562 1342.09375 49.070312 1342.09375 49.511719 1342.09375 L 57.171875 1342.09375 "/>
<path style=" stroke:none;fill-rule:nonzero;fill:rgb(66.665649%,66.665649%,66.665649%);fill-opacity:1;" d="M 413 1129.023438 L 413.050781 1129.023438 C 413.441406 1129.023438 413.792969 1129.269531 413.925781 1129.636719 C 414 1129.875 414 1130.09375 414 1130.535156 L 414 1334.921875 C 414 1343.027344 414 1343.246094 413.925781 1343.484375 C 413.792969 1343.851562 413.441406 1344.09375 413.050781 1344.09375 C 413 1344.09375 413 1344.09375 413 1344.09375 L 412.949219 1344.09375 C 412.558594 1344.09375 412.207031 1343.851562 412.074219 1343.484375 C 412 1343.246094 412 1343.027344 412 1342.585938 L 412 1138.195312 C 412 1130.09375 412 1129.875 412.074219 1129.636719 C 412.207031 1129.269531 412.558594 1129.023438 412.949219 1129.023438 C 413 1129.023438 413 1129.023438 413 1129.023438 "/>
<path style=" stroke:none;fill-rule:nonzero;fill:rgb(66.665649%,66.665649%,66.665649%);fill-opacity:1;" d="M 423.171875 1129.023438 L 768.828125 1129.023438 C 776.929688 1129.023438 777.152344 1129.023438 777.386719 1129.101562 C 777.753906 1129.234375 778 1129.582031 778 1129.976562 C 778 1130.023438 778 1130.023438 778 1130.023438 L 778 1130.074219 C 778 1130.464844 777.753906 1130.816406 777.386719 1130.949219 C 777.152344 1131.023438 776.929688 1131.023438 776.488281 1131.023438 L 423.171875 1131.023438 C 415.070312 1131.023438 414.847656 1131.023438 414.613281 1130.949219 C 414.246094 1130.816406 414 1130.464844 414 1130.074219 C 414 1130.023438 414 1130.023438 414 1130.023438 L 414 1129.976562 C 414 1129.582031 414.246094 1129.234375 414.613281 1129.101562 C 414.847656 1129.023438 415.070312 1129.023438 415.511719 1129.023438 L 423.171875 1129.023438 "/>
<path style=" stroke:none;fill-rule:nonzero;fill:rgb(66.665649%,66.665649%,66.665649%);fill-opacity:1;" d="M 779 1129.023438 L 779.050781 1129.023438 C 779.441406 1129.023438 779.792969 1129.269531 779.925781 1129.636719 C 780 1129.875 780 1130.09375 780 1130.535156 L 780 1334.921875 C 780 1343.027344 780 1343.246094 779.925781 1343.484375 C 779.792969 1343.851562 779.441406 1344.09375 779.050781 1344.09375 C 779 1344.09375 779 1344.09375 779 1344.09375 L 778.949219 1344.09375 C 778.558594 1344.09375 778.207031 1343.851562 778.074219 1343.484375 C 778 1343.246094 778 1343.027344 778 1342.585938 L 778 1138.195312 C 778 1130.09375 778 1129.875 778.074219 1129.636719 C 778.207031 1129.269531 778.558594 1129.023438 778.949219 1129.023438 C 779 1129.023438 779 1129.023438 779 1129.023438 "/>
<path style=" stroke:none;fill-rule:nonzero;fill:rgb(66.665649%,66.665649%,66.665649%);fill-opacity:1;" d="M 423.171875 1342.09375 L 768.828125 1342.09375 C 776.929688 1342.09375 777.152344 1342.09375 777.386719 1342.171875 C 777.753906 1342.304688 778 1342.652344 778 1343.046875 C 778 1343.09375 778 1343.09375 778 1343.09375 L 778 1343.144531 C 778 1343.535156 777.753906 1343.886719 777.386719 1344.019531 C 777.152344 1344.09375 776.929688 1344.09375 776.488281 1344.09375 L 423.171875 1344.09375 C 415.070312 1344.09375 414.847656 1344.09375 414.613281 1344.019531 C 414.246094 1343.886719 414 1343.535156 414 1343.144531 C 414 1343.09375 414 1343.09375 414 1343.09375 L 414 1343.046875 C 414 1342.652344 414.246094 1342.304688 414.613281 1342.171875 C 414.847656 1342.09375 415.070312 1342.09375 415.511719 1342.09375 L 423.171875 1342.09375 "/>
<path style=" stroke:none;fill-rule:nonzero;fill:rgb(66.665649%,66.665649%,66.665649%);fill-opacity:1;" d="M 779 1129.023438 L 779.050781 1129.023438 C 779.441406 1129.023438 779.792969 1129.269531 779.925781 1129.636719 C 780 1129.875 780 1130.09375 780 1130.535156 L 780 1334.921875 C 780 1343.027344 780 1343.246094 779.925781 1343.484375 C 779.792969 1343.851562 779.441406 1344.09375 779.050781 1344.09375 C 779 1344.09375 779 1344.09375 779 1344.09375 L 778.949219 1344.09375 C 778.558594 1344.09375 778.207031 1343.851562 778.074219 1343.484375 C 778 1343.246094 778 1343.027344 778 1342.585938 L 778 1138.195312 C 778 1130.09375 778 1129.875 778.074219 1129.636719 C 778.207031 1129.269531 778.558594 1129.023438 778.949219 1129.023438 C 779 1129.023438 779 1129.023438 779 1129.023438 "/>
<path style=" stroke:none;fill-rule:nonzero;fill:rgb(66.665649%,66.665649%,66.665649%);fill-opacity:1;" d="M 789.171875 1129.023438 L 1134.828125 1129.023438 C 1142.929688 1129.023438 1143.152344 1129.023438 1143.386719 1129.101562 C 1143.753906 1129.234375 1144 1129.582031 1144 1129.976562 C 1144 1130.023438 1144 1130.023438 1144 1130.023438 L 1144 1130.074219 C 1144 1130.464844 1143.753906 1130.816406 1143.386719 1130.949219 C 1143.152344 1131.023438 1142.929688 1131.023438 1142.488281 1131.023438 L 789.171875 1131.023438 C 781.070312 1131.023438 780.847656 1131.023438 780.613281 1130.949219 C 780.246094 1130.816406 780 1130.464844 780 1130.074219 C 780 1130.023438 780 1130.023438 780 1130.023438 L 780 1129.976562 C 780 1129.582031 780.246094 1129.234375 780.613281 1129.101562 C 780.847656 1129.023438 781.070312 1129.023438 781.511719 1129.023438 L 789.171875 1129.023438 "/>
<path style=" stroke:none;fill-rule:nonzero;fill:rgb(66.665649%,66.665649%,66.665649%);fill-opacity:1;" d="M 1145 1129.023438 L 1145.050781 1129.023438 C 1145.441406 1129.023438 1145.792969 1129.269531 1145.925781 1129.636719 C 1146 1129.875 1146 1130.09375 1146 1130.535156 L 1146 1334.921875 C 1146 1343.027344 1146 1343.246094 1145.925781 1343.484375 C 1145.792969 1343.851562 1145.441406 1344.09375 1145.050781 1344.09375 C 1145 1344.09375 1145 1344.09375 1145 1344.09375 L 1144.949219 1344.09375 C 1144.558594 1344.09375 1144.207031 1343.851562 1144.074219 1343.484375 C 1144 1343.246094 1144 1343.027344 1144 1342.585938 L 1144 1138.195312 C 1144 1130.09375 1144 1129.875 1144.074219 1129.636719 C 1144.207031 1129.269531 1144.558594 1129.023438 1144.949219 1129.023438 C 1145 1129.023438 1145 1129.023438 1145 1129.023438 "/>
<path style=" stroke:none;fill-rule:nonzero;fill:rgb(66.665649%,66.665649%,66.665649%);fill-opacity:1;" d="M 789.171875 1342.09375 L 1134.828125 1342.09375 C 1142.929688 1342.09375 1143.152344 1342.09375 1143.386719 1342.171875 C 1143.753906 1342.304688 1144 1342.652344 1144 1343.046875 C 1144 1343.09375 1144 1343.09375 1144 1343.09375 L 1144 1343.144531 C 1144 1343.535156 1143.753906 1343.886719 1143.386719 1344.019531 C 1143.152344 1344.09375 1142.929688 1344.09375 1142.488281 1344.09375 L 789.171875 1344.09375 C 781.070312 1344.09375 780.847656 1344.09375 780.613281 1344.019531 C 780.246094 1343.886719 780 1343.535156 780 1343.144531 C 780 1343.09375 780 1343.09375 780 1343.09375 L 780 1343.046875 C 780 1342.652344 780.246094 1342.304688 780.613281 1342.171875 C 780.847656 1342.09375 781.070312 1342.09375 781.511719 1342.09375 L 789.171875 1342.09375 "/>
<path style=" stroke:none;fill-rule:nonzero;fill:rgb(66.665649%,66.665649%,66.665649%);fill-opacity:1;" d="M 47 1342.09375 L 47.050781 1342.09375 C 47.441406 1342.09375 47.792969 1342.339844 47.925781 1342.707031 C 48 1342.945312 48 1343.164062 48 1343.605469 L 48 1465.164062 C 48 1473.269531 48 1473.488281 47.925781 1473.726562 C 47.792969 1474.09375 47.441406 1474.335938 47.050781 1474.335938 C 47 1474.335938 47 1474.335938 47 1474.335938 L 46.949219 1474.335938 C 46.558594 1474.335938 46.207031 1474.09375 46.074219 1473.726562 C 46 1473.488281 46 1473.269531 46 1472.828125 L 46 1351.265625 C 46 1343.164062 46 1342.945312 46.074219 1342.707031 C 46.207031 1342.339844 46.558594 1342.09375 46.949219 1342.09375 C 47 1342.09375 47 1342.09375 47 1342.09375 "/>
<path style=" stroke:none;fill-rule:nonzero;fill:rgb(66.665649%,66.665649%,66.665649%);fill-opacity:1;" d="M 57.171875 1342.09375 L 402.828125 1342.09375 C 410.929688 1342.09375 411.152344 1342.09375 411.386719 1342.171875 C 411.753906 1342.304688 412 1342.652344 412 1343.046875 C 412 1343.09375 412 1343.09375 412 1343.09375 L 412 1343.144531 C 412 1343.535156 411.753906 1343.886719 411.386719 1344.019531 C 411.152344 1344.09375 410.929688 1344.09375 410.488281 1344.09375 L 57.171875 1344.09375 C 49.070312 1344.09375 48.851562 1344.09375 48.613281 1344.019531 C 48.246094 1343.886719 48 1343.535156 48 1343.144531 C 48 1343.09375 48 1343.09375 48 1343.09375 L 48 1343.046875 C 48 1342.652344 48.246094 1342.304688 48.613281 1342.171875 C 48.851562 1342.09375 49.070312 1342.09375 49.511719 1342.09375 L 57.171875 1342.09375 "/>
<path style=" stroke:none;fill-rule:nonzero;fill:rgb(66.665649%,66.665649%,66.665649%);fill-opacity:1;" d="M 413 1342.09375 L 413.050781 1342.09375 C 413.441406 1342.09375 413.792969 1342.339844 413.925781 1342.707031 C 414 1342.945312 414 1343.164062 414 1343.605469 L 414 1465.164062 C 414 1473.269531 414 1473.488281 413.925781 1473.726562 C 413.792969 1474.09375 413.441406 1474.335938 413.050781 1474.335938 C 413 1474.335938 413 1474.335938 413 1474.335938 L 412.949219 1474.335938 C 412.558594 1474.335938 412.207031 1474.09375 412.074219 1473.726562 C 412 1473.488281 412 1473.269531 412 1472.828125 L 412 1351.265625 C 412 1343.164062 412 1342.945312 412.074219 1342.707031 C 412.207031 1342.339844 412.558594 1342.09375 412.949219 1342.09375 C 413 1342.09375 413 1342.09375 413 1342.09375 "/>
<path style=" stroke:none;fill-rule:nonzero;fill:rgb(66.665649%,66.665649%,66.665649%);fill-opacity:1;" d="M 57.171875 1472.335938 L 402.828125 1472.335938 C 410.929688 1472.335938 411.152344 1472.335938 411.386719 1472.414062 C 411.753906 1472.546875 412 1472.894531 412 1473.289062 C 412 1473.335938 412 1473.335938 412 1473.335938 L 412 1473.386719 C 412 1473.777344 411.753906 1474.128906 411.386719 1474.261719 C 411.152344 1474.335938 410.929688 1474.335938 410.488281 1474.335938 L 57.171875 1474.335938 C 49.070312 1474.335938 48.851562 1474.335938 48.613281 1474.261719 C 48.246094 1474.128906 48 1473.777344 48 1473.386719 C 48 1473.335938 48 1473.335938 48 1473.335938 L 48 1473.289062 C 48 1472.894531 48.246094 1472.546875 48.613281 1472.414062 C 48.851562 1472.335938 49.070312 1472.335938 49.511719 1472.335938 L 57.171875 1472.335938 "/>
<path style=" stroke:none;fill-rule:nonzero;fill:rgb(66.665649%,66.665649%,66.665649%);fill-opacity:1;" d="M 413 1342.09375 L 413.050781 1342.09375 C 413.441406 1342.09375 413.792969 1342.339844 413.925781 1342.707031 C 414 1342.945312 414 1343.164062 414 1343.605469 L 414 1465.164062 C 414 1473.269531 414 1473.488281 413.925781 1473.726562 C 413.792969 1474.09375 413.441406 1474.335938 413.050781 1474.335938 C 413 1474.335938 413 1474.335938 413 1474.335938 L 412.949219 1474.335938 C 412.558594 1474.335938 412.207031 1474.09375 412.074219 1473.726562 C 412 1473.488281 412 1473.269531 412 1472.828125 L 412 1351.265625 C 412 1343.164062 412 1342.945312 412.074219 1342.707031 C 412.207031 1342.339844 412.558594 1342.09375 412.949219 1342.09375 C 413 1342.09375 413 1342.09375 413 1342.09375 "/>
<path style=" stroke:none;fill-rule:nonzero;fill:rgb(66.665649%,66.665649%,66.665649%);fill-opacity:1;" d="M 423.171875 1342.09375 L 768.828125 1342.09375 C 776.929688 1342.09375 777.152344 1342.09375 777.386719 1342.171875 C 777.753906 1342.304688 778 1342.652344 778 1343.046875 C 778 1343.09375 778 1343.09375 778 1343.09375 L 778 1343.144531 C 778 1343.535156 777.753906 1343.886719 777.386719 1344.019531 C 777.152344 1344.09375 776.929688 1344.09375 776.488281 1344.09375 L 423.171875 1344.09375 C 415.070312 1344.09375 414.847656 1344.09375 414.613281 1344.019531 C 414.246094 1343.886719 414 1343.535156 414 1343.144531 C 414 1343.09375 414 1343.09375 414 1343.09375 L 414 1343.046875 C 414 1342.652344 414.246094 1342.304688 414.613281 1342.171875 C 414.847656 1342.09375 415.070312 1342.09375 415.511719 1342.09375 L 423.171875 1342.09375 "/>
<path style=" stroke:none;fill-rule:nonzero;fill:rgb(66.665649%,66.665649%,66.665649%);fill-opacity:1;" d="M 779 1342.09375 L 779.050781 1342.09375 C 779.441406 1342.09375 779.792969 1342.339844 779.925781 1342.707031 C 780 1342.945312 780 1343.164062 780 1343.605469 L 780 1465.164062 C 780 1473.269531 780 1473.488281 779.925781 1473.726562 C 779.792969 1474.09375 779.441406 1474.335938 779.050781 1474.335938 C 779 1474.335938 779 1474.335938 779 1474.335938 L 778.949219 1474.335938 C 778.558594 1474.335938 778.207031 1474.09375 778.074219 1473.726562 C 778 1473.488281 778 1473.269531 778 1472.828125 L 778 1351.265625 C 778 1343.164062 778 1342.945312 778.074219 1342.707031 C 778.207031 1342.339844 778.558594 1342.09375 778.949219 1342.09375 C 779 1342.09375 779 1342.09375 779 1342.09375 "/>
<path style=" stroke:none;fill-rule:nonzero;fill:rgb(66.665649%,66.665649%,66.665649%);fill-opacity:1;" d="M 423.171875 1472.335938 L 768.828125 1472.335938 C 776.929688 1472.335938 777.152344 1472.335938 777.386719 1472.414062 C 777.753906 1472.546875 778 1472.894531 778 1473.289062 C 778 1473.335938 778 1473.335938 778 1473.335938 L 778 1473.386719 C 778 1473.777344 777.753906 1474.128906 777.386719 1474.261719 C 777.152344 1474.335938 776.929688 1474.335938 776.488281 1474.335938 L 423.171875 1474.335938 C 415.070312 1474.335938 414.847656 1474.335938 414.613281 1474.261719 C 414.246094 1474.128906 414 1473.777344 414 1473.386719 C 414 1473.335938 414 1473.335938 414 1473.335938 L 414 1473.289062 C 414 1472.894531 414.246094 1472.546875 414.613281 1472.414062 C 414.847656 1472.335938 415.070312 1472.335938 415.511719 1472.335938 L 423.171875 1472.335938 "/>
<path style=" stroke:none;fill-rule:nonzero;fill:rgb(66.665649%,66.665649%,66.665649%);fill-opacity:1;" d="M 779 1342.09375 L 779.050781 1342.09375 C 779.441406 1342.09375 779.792969 1342.339844 779.925781 1342.707031 C 780 1342.945312 780 1343.164062 780 1343.605469 L 780 1465.164062 C 780 1473.269531 780 1473.488281 779.925781 1473.726562 C 779.792969 1474.09375 779.441406 1474.335938 779.050781 1474.335938 C 779 1474.335938 779 1474.335938 779 1474.335938 L 778.949219 1474.335938 C 778.558594 1474.335938 778.207031 1474.09375 778.074219 1473.726562 C 778 1473.488281 778 1473.269531 778 1472.828125 L 778 1351.265625 C 778 1343.164062 778 1342.945312 778.074219 1342.707031 C 778.207031 1342.339844 778.558594 1342.09375 778.949219 1342.09375 C 779 1342.09375 779 1342.09375 779 1342.09375 "/>
<path style=" stroke:none;fill-rule:nonzero;fill:rgb(66.665649%,66.665649%,66.665649%);fill-opacity:1;" d="M 789.171875 1342.09375 L 1134.828125 1342.09375 C 1142.929688 1342.09375 1143.152344 1342.09375 1143.386719 1342.171875 C 1143.753906 1342.304688 1144 1342.652344 1144 1343.046875 C 1144 1343.09375 1144 1343.09375 1144 1343.09375 L 1144 1343.144531 C 1144 1343.535156 1143.753906 1343.886719 1143.386719 1344.019531 C 1143.152344 1344.09375 1142.929688 1344.09375 1142.488281 1344.09375 L 789.171875 1344.09375 C 781.070312 1344.09375 780.847656 1344.09375 780.613281 1344.019531 C 780.246094 1343.886719 780 1343.535156 780 1343.144531 C 780 1343.09375 780 1343.09375 780 1343.09375 L 780 1343.046875 C 780 1342.652344 780.246094 1342.304688 780.613281 1342.171875 C 780.847656 1342.09375 781.070312 1342.09375 781.511719 1342.09375 L 789.171875 1342.09375 "/>
<path style=" stroke:none;fill-rule:nonzero;fill:rgb(66.665649%,66.665649%,66.665649%);fill-opacity:1;" d="M 1145 1342.09375 L 1145.050781 1342.09375 C 1145.441406 1342.09375 1145.792969 1342.339844 1145.925781 1342.707031 C 1146 1342.945312 1146 1343.164062 1146 1343.605469 L 1146 1465.164062 C 1146 1473.269531 1146 1473.488281 1145.925781 1473.726562 C 1145.792969 1474.09375 1145.441406 1474.335938 1145.050781 1474.335938 C 1145 1474.335938 1145 1474.335938 1145 1474.335938 L 1144.949219 1474.335938 C 1144.558594 1474.335938 1144.207031 1474.09375 1144.074219 1473.726562 C 1144 1473.488281 1144 1473.269531 1144 1472.828125 L 1144 1351.265625 C 1144 1343.164062 1144 1342.945312 1144.074219 1342.707031 C 1144.207031 1342.339844 1144.558594 1342.09375 1144.949219 1342.09375 C 1145 1342.09375 1145 1342.09375 1145 1342.09375 "/>
<path style=" stroke:none;fill-rule:nonzero;fill:rgb(66.665649%,66.665649%,66.665649%);fill-opacity:1;" d="M 789.171875 1472.335938 L 1134.828125 1472.335938 C 1142.929688 1472.335938 1143.152344 1472.335938 1143.386719 1472.414062 C 1143.753906 1472.546875 1144 1472.894531 1144 1473.289062 C 1144 1473.335938 1144 1473.335938 1144 1473.335938 L 1144 1473.386719 C 1144 1473.777344 1143.753906 1474.128906 1143.386719 1474.261719 C 1143.152344 1474.335938 1142.929688 1474.335938 1142.488281 1474.335938 L 789.171875 1474.335938 C 781.070312 1474.335938 780.847656 1474.335938 780.613281 1474.261719 C 780.246094 1474.128906 780 1473.777344 780 1473.386719 C 780 1473.335938 780 1473.335938 780 1473.335938 L 780 1473.289062 C 780 1472.894531 780.246094 1472.546875 780.613281 1472.414062 C 780.847656 1472.335938 781.070312 1472.335938 781.511719 1472.335938 L 789.171875 1472.335938 "/>
<g clip-path="url(#clip1)" clip-rule="nonzero">
<path style=" stroke:none;fill-rule:nonzero;fill:rgb(66.665649%,66.665649%,66.665649%);fill-opacity:1;" d="M 47 1472.335938 L 47.050781 1472.335938 C 47.441406 1472.335938 47.792969 1472.582031 47.925781 1472.949219 C 48 1473.1875 48 1473.40625 48 1473.847656 L 48 1636.820312 C 48 1644.925781 48 1645.144531 47.925781 1645.382812 C 47.792969 1645.75 47.441406 1645.992188 47.050781 1645.992188 C 47 1645.992188 47 1645.992188 47 1645.992188 L 46.949219 1645.992188 C 46.558594 1645.992188 46.207031 1645.75 46.074219 1645.382812 C 46 1645.144531 46 1644.925781 46 1644.484375 L 46 1481.507812 C 46 1473.40625 46 1473.1875 46.074219 1472.949219 C 46.207031 1472.582031 46.558594 1472.335938 46.949219 1472.335938 C 47 1472.335938 47 1472.335938 47 1472.335938 "/>
</g>
<path style=" stroke:none;fill-rule:nonzero;fill:rgb(66.665649%,66.665649%,66.665649%);fill-opacity:1;" d="M 57.171875 1472.335938 L 402.828125 1472.335938 C 410.929688 1472.335938 411.152344 1472.335938 411.386719 1472.414062 C 411.753906 1472.546875 412 1472.894531 412 1473.289062 C 412 1473.335938 412 1473.335938 412 1473.335938 L 412 1473.386719 C 412 1473.777344 411.753906 1474.128906 411.386719 1474.261719 C 411.152344 1474.335938 410.929688 1474.335938 410.488281 1474.335938 L 57.171875 1474.335938 C 49.070312 1474.335938 48.851562 1474.335938 48.613281 1474.261719 C 48.246094 1474.128906 48 1473.777344 48 1473.386719 C 48 1473.335938 48 1473.335938 48 1473.335938 L 48 1473.289062 C 48 1472.894531 48.246094 1472.546875 48.613281 1472.414062 C 48.851562 1472.335938 49.070312 1472.335938 49.511719 1472.335938 L 57.171875 1472.335938 "/>
<g clip-path="url(#clip2)" clip-rule="nonzero">
<path style=" stroke:none;fill-rule:nonzero;fill:rgb(66.665649%,66.665649%,66.665649%);fill-opacity:1;" d="M 413 1472.335938 L 413.050781 1472.335938 C 413.441406 1472.335938 413.792969 1472.582031 413.925781 1472.949219 C 414 1473.1875 414 1473.40625 414 1473.847656 L 414 1636.820312 C 414 1644.925781 414 1645.144531 413.925781 1645.382812 C 413.792969 1645.75 413.441406 1645.992188 413.050781 1645.992188 C 413 1645.992188 413 1645.992188 413 1645.992188 L 412.949219 1645.992188 C 412.558594 1645.992188 412.207031 1645.75 412.074219 1645.382812 C 412 1645.144531 412 1644.925781 412 1644.484375 L 412 1481.507812 C 412 1473.40625 412 1473.1875 412.074219 1472.949219 C 412.207031 1472.582031 412.558594 1472.335938 412.949219 1472.335938 C 413 1472.335938 413 1472.335938 413 1472.335938 "/>
<path style=" stroke:none;fill-rule:nonzero;fill:rgb(66.665649%,66.665649%,66.665649%);fill-opacity:1;" d="M 413 1472.335938 L 413.050781 1472.335938 C 413.441406 1472.335938 413.792969 1472.582031 413.925781 1472.949219 C 414 1473.1875 414 1473.40625 414 1473.847656 L 414 1636.820312 C 414 1644.925781 414 1645.144531 413.925781 1645.382812 C 413.792969 1645.75 413.441406 1645.992188 413.050781 1645.992188 C 413 1645.992188 413 1645.992188 413 1645.992188 L 412.949219 1645.992188 C 412.558594 1645.992188 412.207031 1645.75 412.074219 1645.382812 C 412 1645.144531 412 1644.925781 412 1644.484375 L 412 1481.507812 C 412 1473.40625 412 1473.1875 412.074219 1472.949219 C 412.207031 1472.582031 412.558594 1472.335938 412.949219 1472.335938 C 413 1472.335938 413 1472.335938 413 1472.335938 "/>
</g>
<path style=" stroke:none;fill-rule:nonzero;fill:rgb(66.665649%,66.665649%,66.665649%);fill-opacity:1;" d="M 423.171875 1472.335938 L 768.828125 1472.335938 C 776.929688 1472.335938 777.152344 1472.335938 777.386719 1472.414062 C 777.753906 1472.546875 778 1472.894531 778 1473.289062 C 778 1473.335938 778 1473.335938 778 1473.335938 L 778 1473.386719 C 778 1473.777344 777.753906 1474.128906 777.386719 1474.261719 C 777.152344 1474.335938 776.929688 1474.335938 776.488281 1474.335938 L 423.171875 1474.335938 C 415.070312 1474.335938 414.847656 1474.335938 414.613281 1474.261719 C 414.246094 1474.128906 414 1473.777344 414 1473.386719 C 414 1473.335938 414 1473.335938 414 1473.335938 L 414 1473.289062 C 414 1472.894531 414.246094 1472.546875 414.613281 1472.414062 C 414.847656 1472.335938 415.070312 1472.335938 415.511719 1472.335938 L 423.171875 1472.335938 "/>
<g clip-path="url(#clip3)" clip-rule="nonzero">
<path style=" stroke:none;fill-rule:nonzero;fill:rgb(66.665649%,66.665649%,66.665649%);fill-opacity:1;" d="M 779 1472.335938 L 779.050781 1472.335938 C 779.441406 1472.335938 779.792969 1472.582031 779.925781 1472.949219 C 780 1473.1875 780 1473.40625 780 1473.847656 L 780 1636.820312 C 780 1644.925781 780 1645.144531 779.925781 1645.382812 C 779.792969 1645.75 779.441406 1645.992188 779.050781 1645.992188 C 779 1645.992188 779 1645.992188 779 1645.992188 L 778.949219 1645.992188 C 778.558594 1645.992188 778.207031 1645.75 778.074219 1645.382812 C 778 1645.144531 778 1644.925781 778 1644.484375 L 778 1481.507812 C 778 1473.40625 778 1473.1875 778.074219 1472.949219 C 778.207031 1472.582031 778.558594 1472.335938 778.949219 1472.335938 C 779 1472.335938 779 1472.335938 779 1472.335938 "/>
<path style=" stroke:none;fill-rule:nonzero;fill:rgb(66.665649%,66.665649%,66.665649%);fill-opacity:1;" d="M 779 1472.335938 L 779.050781 1472.335938 C 779.441406 1472.335938 779.792969 1472.582031 779.925781 1472.949219 C 780 1473.1875 780 1473.40625 780 1473.847656 L 780 1636.820312 C 780 1644.925781 780 1645.144531 779.925781 1645.382812 C 779.792969 1645.75 779.441406 1645.992188 779.050781 1645.992188 C 779 1645.992188 779 1645.992188 779 1645.992188 L 778.949219 1645.992188 C 778.558594 1645.992188 778.207031 1645.75 778.074219 1645.382812 C 778 1645.144531 778 1644.925781 778 1644.484375 L 778 1481.507812 C 778 1473.40625 778 1473.1875 778.074219 1472.949219 C 778.207031 1472.582031 778.558594 1472.335938 778.949219 1472.335938 C 779 1472.335938 779 1472.335938 779 1472.335938 "/>
</g>
<path style=" stroke:none;fill-rule:nonzero;fill:rgb(66.665649%,66.665649%,66.665649%);fill-opacity:1;" d="M 789.171875 1472.335938 L 1134.828125 1472.335938 C 1142.929688 1472.335938 1143.152344 1472.335938 1143.386719 1472.414062 C 1143.753906 1472.546875 1144 1472.894531 1144 1473.289062 C 1144 1473.335938 1144 1473.335938 1144 1473.335938 L 1144 1473.386719 C 1144 1473.777344 1143.753906 1474.128906 1143.386719 1474.261719 C 1143.152344 1474.335938 1142.929688 1474.335938 1142.488281 1474.335938 L 789.171875 1474.335938 C 781.070312 1474.335938 780.847656 1474.335938 780.613281 1474.261719 C 780.246094 1474.128906 780 1473.777344 780 1473.386719 C 780 1473.335938 780 1473.335938 780 1473.335938 L 780 1473.289062 C 780 1472.894531 780.246094 1472.546875 780.613281 1472.414062 C 780.847656 1472.335938 781.070312 1472.335938 781.511719 1472.335938 L 789.171875 1472.335938 "/>
<g clip-path="url(#clip4)" clip-rule="nonzero">
<path style=" stroke:none;fill-rule:nonzero;fill:rgb(66.665649%,66.665649%,66.665649%);fill-opacity:1;" d="M 1145 1472.335938 L 1145.050781 1472.335938 C 1145.441406 1472.335938 1145.792969 1472.582031 1145.925781 1472.949219 C 1146 1473.1875 1146 1473.40625 1146 1473.847656 L 1146 1636.820312 C 1146 1644.925781 1146 1645.144531 1145.925781 1645.382812 C 1145.792969 1645.75 1145.441406 1645.992188 1145.050781 1645.992188 C 1145 1645.992188 1145 1645.992188 1145 1645.992188 L 1144.949219 1645.992188 C 1144.558594 1645.992188 1144.207031 1645.75 1144.074219 1645.382812 C 1144 1645.144531 1144 1644.925781 1144 1644.484375 L 1144 1481.507812 C 1144 1473.40625 1144 1473.1875 1144.074219 1472.949219 C 1144.207031 1472.582031 1144.558594 1472.335938 1144.949219 1472.335938 C 1145 1472.335938 1145 1472.335938 1145 1472.335938 "/>
</g>
</g>
</svg>
