<?xml version="1.0" encoding="UTF-8"?>
<svg xmlns="http://www.w3.org/2000/svg" xmlns:xlink="http://www.w3.org/1999/xlink" width="1190.5512pt" height="1683.7796pt" viewBox="0 0 1190.5512 1683.7796" version="1.2">
<defs>
<clipPath id="clip1">
  <path d="M 412 79.992188 L 414 79.992188 L 414 123 L 412 123 Z M 412 79.992188 "/>
</clipPath>
<clipPath id="clip2">
  <path d="M 778 79.992188 L 780 79.992188 L 780 123 L 778 123 Z M 778 79.992188 "/>
</clipPath>
<clipPath id="clip3">
  <path d="M 778 79.992188 L 780 79.992188 L 780 123 L 778 123 Z M 778 79.992188 "/>
</clipPath>
<clipPath id="clip4">
  <path d="M 1144 79.992188 L 1146 79.992188 L 1146 123 L 1144 123 Z M 1144 79.992188 "/>
</clipPath>
</defs>
<g id="surface44">
<g clip-path="url(#clip1)" clip-rule="nonzero">
<path style=" stroke:none;fill-rule:nonzero;fill:rgb(66.665649%,66.665649%,66.665649%);fill-opacity:1;" d="M 413 -51.453125 L 413.050781 -51.453125 C 413.441406 -51.453125 413.792969 -51.210938 413.925781 -50.84375 C 414 -50.605469 414 -50.386719 414 -49.945312 L 414 113.03125 C 414 121.132812 414 121.351562 413.925781 121.589844 C 413.792969 121.957031 413.441406 122.203125 413.050781 122.203125 C 413 122.203125 413 122.203125 413 122.203125 L 412.949219 122.203125 C 412.558594 122.203125 412.207031 121.957031 412.074219 121.589844 C 412 121.351562 412 121.132812 412 120.691406 L 412 -42.28125 C 412 -50.386719 412 -50.605469 412.074219 -50.84375 C 412.207031 -51.210938 412.558594 -51.453125 412.949219 -51.453125 C 413 -51.453125 413 -51.453125 413 -51.453125 "/>
</g>
<g clip-path="url(#clip2)" clip-rule="nonzero">
<path style=" stroke:none;fill-rule:nonzero;fill:rgb(66.665649%,66.665649%,66.665649%);fill-opacity:1;" d="M 779 -51.453125 L 779.050781 -51.453125 C 779.441406 -51.453125 779.792969 -51.210938 779.925781 -50.84375 C 780 -50.605469 780 -50.386719 780 -49.945312 L 780 113.03125 C 780 121.132812 780 121.351562 779.925781 121.589844 C 779.792969 121.957031 779.441406 122.203125 779.050781 122.203125 C 779 122.203125 779 122.203125 779 122.203125 L 778.949219 122.203125 C 778.558594 122.203125 778.207031 121.957031 778.074219 121.589844 C 778 121.351562 778 121.132812 778 120.691406 L 778 -42.28125 C 778 -50.386719 778 -50.605469 778.074219 -50.84375 C 778.207031 -51.210938 778.558594 -51.453125 778.949219 -51.453125 C 779 -51.453125 779 -51.453125 779 -51.453125 "/>
</g>
<path style=" stroke:none;fill-rule:nonzero;fill:rgb(66.665649%,66.665649%,66.665649%);fill-opacity:1;" d="M 423.171875 120.203125 L 768.828125 120.203125 C 776.929688 120.203125 777.152344 120.203125 777.386719 120.277344 C 777.753906 120.410156 778 120.761719 778 121.152344 C 778 121.203125 778 121.203125 778 121.203125 L 778 121.25 C 778 121.644531 777.753906 121.992188 777.386719 122.125 C 777.152344 122.203125 776.929688 122.203125 776.488281 122.203125 L 423.171875 122.203125 C 415.070312 122.203125 414.847656 122.203125 414.613281 122.125 C 414.246094 121.992188 414 121.644531 414 121.25 C 414 121.203125 414 121.203125 414 121.203125 L 414 121.152344 C 414 120.761719 414.246094 120.410156 414.613281 120.277344 C 414.847656 120.203125 415.070312 120.203125 415.511719 120.203125 L 423.171875 120.203125 "/>
<g clip-path="url(#clip3)" clip-rule="nonzero">
<path style=" stroke:none;fill-rule:nonzero;fill:rgb(66.665649%,66.665649%,66.665649%);fill-opacity:1;" d="M 779 -51.453125 L 779.050781 -51.453125 C 779.441406 -51.453125 779.792969 -51.210938 779.925781 -50.84375 C 780 -50.605469 780 -50.386719 780 -49.945312 L 780 113.03125 C 780 121.132812 780 121.351562 779.925781 121.589844 C 779.792969 121.957031 779.441406 122.203125 779.050781 122.203125 C 779 122.203125 779 122.203125 779 122.203125 L 778.949219 122.203125 C 778.558594 122.203125 778.207031 121.957031 778.074219 121.589844 C 778 121.351562 778 121.132812 778 120.691406 L 778 -42.28125 C 778 -50.386719 778 -50.605469 778.074219 -50.84375 C 778.207031 -51.210938 778.558594 -51.453125 778.949219 -51.453125 C 779 -51.453125 779 -51.453125 779 -51.453125 "/>
</g>
<g clip-path="url(#clip4)" clip-rule="nonzero">
<path style=" stroke:none;fill-rule:nonzero;fill:rgb(66.665649%,66.665649%,66.665649%);fill-opacity:1;" d="M 1145 -51.453125 L 1145.050781 -51.453125 C 1145.441406 -51.453125 1145.792969 -51.210938 1145.925781 -50.84375 C 1146 -50.605469 1146 -50.386719 1146 -49.945312 L 1146 113.03125 C 1146 121.132812 1146 121.351562 1145.925781 121.589844 C 1145.792969 121.957031 1145.441406 122.203125 1145.050781 122.203125 C 1145 122.203125 1145 122.203125 1145 122.203125 L 1144.949219 122.203125 C 1144.558594 122.203125 1144.207031 121.957031 1144.074219 121.589844 C 1144 121.351562 1144 121.132812 1144 120.691406 L 1144 -42.28125 C 1144 -50.386719 1144 -50.605469 1144.074219 -50.84375 C 1144.207031 -51.210938 1144.558594 -51.453125 1144.949219 -51.453125 C 1145 -51.453125 1145 -51.453125 1145 -51.453125 "/>
</g>
<path style=" stroke:none;fill-rule:nonzero;fill:rgb(66.665649%,66.665649%,66.665649%);fill-opacity:1;" d="M 789.171875 120.203125 L 1134.828125 120.203125 C 1142.929688 120.203125 1143.152344 120.203125 1143.386719 120.277344 C 1143.753906 120.410156 1144 120.761719 1144 121.152344 C 1144 121.203125 1144 121.203125 1144 121.203125 L 1144 121.25 C 1144 121.644531 1143.753906 121.992188 1143.386719 122.125 C 1143.152344 122.203125 1142.929688 122.203125 1142.488281 122.203125 L 789.171875 122.203125 C 781.070312 122.203125 780.847656 122.203125 780.613281 122.125 C 780.246094 121.992188 780 121.644531 780 121.25 C 780 121.203125 780 121.203125 780 121.203125 L 780 121.152344 C 780 120.761719 780.246094 120.410156 780.613281 120.277344 C 780.847656 120.203125 781.070312 120.203125 781.511719 120.203125 L 789.171875 120.203125 "/>
<path style=" stroke:none;fill-rule:nonzero;fill:rgb(66.665649%,66.665649%,66.665649%);fill-opacity:1;" d="M 47 120.203125 L 47.050781 120.203125 C 47.441406 120.203125 47.792969 120.445312 47.925781 120.8125 C 48 121.050781 48 121.269531 48 121.710938 L 48 201.859375 C 48 209.960938 48 210.179688 47.925781 210.417969 C 47.792969 210.785156 47.441406 211.03125 47.050781 211.03125 C 47 211.03125 47 211.03125 47 211.03125 L 46.949219 211.03125 C 46.558594 211.03125 46.207031 210.785156 46.074219 210.417969 C 46 210.179688 46 209.960938 46 209.519531 L 46 129.375 C 46 121.269531 46 121.050781 46.074219 120.8125 C 46.207031 120.445312 46.558594 120.203125 46.949219 120.203125 C 47 120.203125 47 120.203125 47 120.203125 "/>
<path style=" stroke:none;fill-rule:nonzero;fill:rgb(66.665649%,66.665649%,66.665649%);fill-opacity:1;" d="M 57.171875 120.203125 L 402.828125 120.203125 C 410.929688 120.203125 411.152344 120.203125 411.386719 120.277344 C 411.753906 120.410156 412 120.761719 412 121.152344 C 412 121.203125 412 121.203125 412 121.203125 L 412 121.25 C 412 121.644531 411.753906 121.992188 411.386719 122.125 C 411.152344 122.203125 410.929688 122.203125 410.488281 122.203125 L 57.171875 122.203125 C 49.070312 122.203125 48.851562 122.203125 48.613281 122.125 C 48.246094 121.992188 48 121.644531 48 121.25 C 48 121.203125 48 121.203125 48 121.203125 L 48 121.152344 C 48 120.761719 48.246094 120.410156 48.613281 120.277344 C 48.851562 120.203125 49.070312 120.203125 49.511719 120.203125 L 57.171875 120.203125 "/>
<path style=" stroke:none;fill-rule:nonzero;fill:rgb(66.665649%,66.665649%,66.665649%);fill-opacity:1;" d="M 413 120.203125 L 413.050781 120.203125 C 413.441406 120.203125 413.792969 120.445312 413.925781 120.8125 C 414 121.050781 414 121.269531 414 121.710938 L 414 201.859375 C 414 209.960938 414 210.179688 413.925781 210.417969 C 413.792969 210.785156 413.441406 211.03125 413.050781 211.03125 C 413 211.03125 413 211.03125 413 211.03125 L 412.949219 211.03125 C 412.558594 211.03125 412.207031 210.785156 412.074219 210.417969 C 412 210.179688 412 209.960938 412 209.519531 L 412 129.375 C 412 121.269531 412 121.050781 412.074219 120.8125 C 412.207031 120.445312 412.558594 120.203125 412.949219 120.203125 C 413 120.203125 413 120.203125 413 120.203125 "/>
<path style=" stroke:none;fill-rule:nonzero;fill:rgb(66.665649%,66.665649%,66.665649%);fill-opacity:1;" d="M 57.171875 209.03125 L 402.828125 209.03125 C 410.929688 209.03125 411.152344 209.03125 411.386719 209.105469 C 411.753906 209.238281 412 209.589844 412 209.980469 C 412 210.03125 412 210.03125 412 210.03125 L 412 210.078125 C 412 210.472656 411.753906 210.820312 411.386719 210.953125 C 411.152344 211.03125 410.929688 211.03125 410.488281 211.03125 L 57.171875 211.03125 C 49.070312 211.03125 48.851562 211.03125 48.613281 210.953125 C 48.246094 210.820312 48 210.472656 48 210.078125 C 48 210.03125 48 210.03125 48 210.03125 L 48 209.980469 C 48 209.589844 48.246094 209.238281 48.613281 209.105469 C 48.851562 209.03125 49.070312 209.03125 49.511719 209.03125 L 57.171875 209.03125 "/>
<path style=" stroke:none;fill-rule:nonzero;fill:rgb(66.665649%,66.665649%,66.665649%);fill-opacity:1;" d="M 413 120.203125 L 413.050781 120.203125 C 413.441406 120.203125 413.792969 120.445312 413.925781 120.8125 C 414 121.050781 414 121.269531 414 121.710938 L 414 201.859375 C 414 209.960938 414 210.179688 413.925781 210.417969 C 413.792969 210.785156 413.441406 211.03125 413.050781 211.03125 C 413 211.03125 413 211.03125 413 211.03125 L 412.949219 211.03125 C 412.558594 211.03125 412.207031 210.785156 412.074219 210.417969 C 412 210.179688 412 209.960938 412 209.519531 L 412 129.375 C 412 121.269531 412 121.050781 412.074219 120.8125 C 412.207031 120.445312 412.558594 120.203125 412.949219 120.203125 C 413 120.203125 413 120.203125 413 120.203125 "/>
<path style=" stroke:none;fill-rule:nonzero;fill:rgb(66.665649%,66.665649%,66.665649%);fill-opacity:1;" d="M 423.171875 120.203125 L 768.828125 120.203125 C 776.929688 120.203125 777.152344 120.203125 777.386719 120.277344 C 777.753906 120.410156 778 120.761719 778 121.152344 C 778 121.203125 778 121.203125 778 121.203125 L 778 121.25 C 778 121.644531 777.753906 121.992188 777.386719 122.125 C 777.152344 122.203125 776.929688 122.203125 776.488281 122.203125 L 423.171875 122.203125 C 415.070312 122.203125 414.847656 122.203125 414.613281 122.125 C 414.246094 121.992188 414 121.644531 414 121.25 C 414 121.203125 414 121.203125 414 121.203125 L 414 121.152344 C 414 120.761719 414.246094 120.410156 414.613281 120.277344 C 414.847656 120.203125 415.070312 120.203125 415.511719 120.203125 L 423.171875 120.203125 "/>
<path style=" stroke:none;fill-rule:nonzero;fill:rgb(66.665649%,66.665649%,66.665649%);fill-opacity:1;" d="M 779 120.203125 L 779.050781 120.203125 C 779.441406 120.203125 779.792969 120.445312 779.925781 120.8125 C 780 121.050781 780 121.269531 780 121.710938 L 780 201.859375 C 780 209.960938 780 210.179688 779.925781 210.417969 C 779.792969 210.785156 779.441406 211.03125 779.050781 211.03125 C 779 211.03125 779 211.03125 779 211.03125 L 778.949219 211.03125 C 778.558594 211.03125 778.207031 210.785156 778.074219 210.417969 C 778 210.179688 778 209.960938 778 209.519531 L 778 129.375 C 778 121.269531 778 121.050781 778.074219 120.8125 C 778.207031 120.445312 778.558594 120.203125 778.949219 120.203125 C 779 120.203125 779 120.203125 779 120.203125 "/>
<path style=" stroke:none;fill-rule:nonzero;fill:rgb(66.665649%,66.665649%,66.665649%);fill-opacity:1;" d="M 423.171875 209.03125 L 768.828125 209.03125 C 776.929688 209.03125 777.152344 209.03125 777.386719 209.105469 C 777.753906 209.238281 778 209.589844 778 209.980469 C 778 210.03125 778 210.03125 778 210.03125 L 778 210.078125 C 778 210.472656 777.753906 210.820312 777.386719 210.953125 C 777.152344 211.03125 776.929688 211.03125 776.488281 211.03125 L 423.171875 211.03125 C 415.070312 211.03125 414.847656 211.03125 414.613281 210.953125 C 414.246094 210.820312 414 210.472656 414 210.078125 C 414 210.03125 414 210.03125 414 210.03125 L 414 209.980469 C 414 209.589844 414.246094 209.238281 414.613281 209.105469 C 414.847656 209.03125 415.070312 209.03125 415.511719 209.03125 L 423.171875 209.03125 "/>
<path style=" stroke:none;fill-rule:nonzero;fill:rgb(66.665649%,66.665649%,66.665649%);fill-opacity:1;" d="M 779 120.203125 L 779.050781 120.203125 C 779.441406 120.203125 779.792969 120.445312 779.925781 120.8125 C 780 121.050781 780 121.269531 780 121.710938 L 780 201.859375 C 780 209.960938 780 210.179688 779.925781 210.417969 C 779.792969 210.785156 779.441406 211.03125 779.050781 211.03125 C 779 211.03125 779 211.03125 779 211.03125 L 778.949219 211.03125 C 778.558594 211.03125 778.207031 210.785156 778.074219 210.417969 C 778 210.179688 778 209.960938 778 209.519531 L 778 129.375 C 778 121.269531 778 121.050781 778.074219 120.8125 C 778.207031 120.445312 778.558594 120.203125 778.949219 120.203125 C 779 120.203125 779 120.203125 779 120.203125 "/>
<path style=" stroke:none;fill-rule:nonzero;fill:rgb(66.665649%,66.665649%,66.665649%);fill-opacity:1;" d="M 789.171875 120.203125 L 1134.828125 120.203125 C 1142.929688 120.203125 1143.152344 120.203125 1143.386719 120.277344 C 1143.753906 120.410156 1144 120.761719 1144 121.152344 C 1144 121.203125 1144 121.203125 1144 121.203125 L 1144 121.25 C 1144 121.644531 1143.753906 121.992188 1143.386719 122.125 C 1143.152344 122.203125 1142.929688 122.203125 1142.488281 122.203125 L 789.171875 122.203125 C 781.070312 122.203125 780.847656 122.203125 780.613281 122.125 C 780.246094 121.992188 780 121.644531 780 121.25 C 780 121.203125 780 121.203125 780 121.203125 L 780 121.152344 C 780 120.761719 780.246094 120.410156 780.613281 120.277344 C 780.847656 120.203125 781.070312 120.203125 781.511719 120.203125 L 789.171875 120.203125 "/>
<path style=" stroke:none;fill-rule:nonzero;fill:rgb(66.665649%,66.665649%,66.665649%);fill-opacity:1;" d="M 1145 120.203125 L 1145.050781 120.203125 C 1145.441406 120.203125 1145.792969 120.445312 1145.925781 120.8125 C 1146 121.050781 1146 121.269531 1146 121.710938 L 1146 201.859375 C 1146 209.960938 1146 210.179688 1145.925781 210.417969 C 1145.792969 210.785156 1145.441406 211.03125 1145.050781 211.03125 C 1145 211.03125 1145 211.03125 1145 211.03125 L 1144.949219 211.03125 C 1144.558594 211.03125 1144.207031 210.785156 1144.074219 210.417969 C 1144 210.179688 1144 209.960938 1144 209.519531 L 1144 129.375 C 1144 121.269531 1144 121.050781 1144.074219 120.8125 C 1144.207031 120.445312 1144.558594 120.203125 1144.949219 120.203125 C 1145 120.203125 1145 120.203125 1145 120.203125 "/>
<path style=" stroke:none;fill-rule:nonzero;fill:rgb(66.665649%,66.665649%,66.665649%);fill-opacity:1;" d="M 789.171875 209.03125 L 1134.828125 209.03125 C 1142.929688 209.03125 1143.152344 209.03125 1143.386719 209.105469 C 1143.753906 209.238281 1144 209.589844 1144 209.980469 C 1144 210.03125 1144 210.03125 1144 210.03125 L 1144 210.078125 C 1144 210.472656 1143.753906 210.820312 1143.386719 210.953125 C 1143.152344 211.03125 1142.929688 211.03125 1142.488281 211.03125 L 789.171875 211.03125 C 781.070312 211.03125 780.847656 211.03125 780.613281 210.953125 C 780.246094 210.820312 780 210.472656 780 210.078125 C 780 210.03125 780 210.03125 780 210.03125 L 780 209.980469 C 780 209.589844 780.246094 209.238281 780.613281 209.105469 C 780.847656 209.03125 781.070312 209.03125 781.511719 209.03125 L 789.171875 209.03125 "/>
<path style=" stroke:none;fill-rule:nonzero;fill:rgb(66.665649%,66.665649%,66.665649%);fill-opacity:1;" d="M 47 209.03125 L 47.050781 209.03125 C 47.441406 209.03125 47.792969 209.273438 47.925781 209.644531 C 48 209.878906 48 210.097656 48 210.539062 L 48 497.757812 C 48 505.859375 48 506.078125 47.925781 506.316406 C 47.792969 506.683594 47.441406 506.929688 47.050781 506.929688 C 47 506.929688 47 506.929688 47 506.929688 L 46.949219 506.929688 C 46.558594 506.929688 46.207031 506.683594 46.074219 506.316406 C 46 506.078125 46 505.859375 46 505.417969 L 46 218.203125 C 46 210.097656 46 209.878906 46.074219 209.644531 C 46.207031 209.273438 46.558594 209.03125 46.949219 209.03125 C 47 209.03125 47 209.03125 47 209.03125 "/>
<path style=" stroke:none;fill-rule:nonzero;fill:rgb(66.665649%,66.665649%,66.665649%);fill-opacity:1;" d="M 57.171875 209.03125 L 402.828125 209.03125 C 410.929688 209.03125 411.152344 209.03125 411.386719 209.105469 C 411.753906 209.238281 412 209.589844 412 209.980469 C 412 210.03125 412 210.03125 412 210.03125 L 412 210.078125 C 412 210.472656 411.753906 210.820312 411.386719 210.953125 C 411.152344 211.03125 410.929688 211.03125 410.488281 211.03125 L 57.171875 211.03125 C 49.070312 211.03125 48.851562 211.03125 48.613281 210.953125 C 48.246094 210.820312 48 210.472656 48 210.078125 C 48 210.03125 48 210.03125 48 210.03125 L 48 209.980469 C 48 209.589844 48.246094 209.238281 48.613281 209.105469 C 48.851562 209.03125 49.070312 209.03125 49.511719 209.03125 L 57.171875 209.03125 "/>
<path style=" stroke:none;fill-rule:nonzero;fill:rgb(66.665649%,66.665649%,66.665649%);fill-opacity:1;" d="M 413 209.03125 L 413.050781 209.03125 C 413.441406 209.03125 413.792969 209.273438 413.925781 209.644531 C 414 209.878906 414 210.097656 414 210.539062 L 414 497.757812 C 414 505.859375 414 506.078125 413.925781 506.316406 C 413.792969 506.683594 413.441406 506.929688 413.050781 506.929688 C 413 506.929688 413 506.929688 413 506.929688 L 412.949219 506.929688 C 412.558594 506.929688 412.207031 506.683594 412.074219 506.316406 C 412 506.078125 412 505.859375 412 505.417969 L 412 218.203125 C 412 210.097656 412 209.878906 412.074219 209.644531 C 412.207031 209.273438 412.558594 209.03125 412.949219 209.03125 C 413 209.03125 413 209.03125 413 209.03125 "/>
<path style=" stroke:none;fill-rule:nonzero;fill:rgb(66.665649%,66.665649%,66.665649%);fill-opacity:1;" d="M 57.171875 504.929688 L 402.828125 504.929688 C 410.929688 504.929688 411.152344 504.929688 411.386719 505.003906 C 411.753906 505.136719 412 505.488281 412 505.878906 C 412 505.929688 412 505.929688 412 505.929688 L 412 505.976562 C 412 506.371094 411.753906 506.71875 411.386719 506.851562 C 411.152344 506.929688 410.929688 506.929688 410.488281 506.929688 L 57.171875 506.929688 C 49.070312 506.929688 48.851562 506.929688 48.613281 506.851562 C 48.246094 506.71875 48 506.371094 48 505.976562 C 48 505.929688 48 505.929688 48 505.929688 L 48 505.878906 C 48 505.488281 48.246094 505.136719 48.613281 505.003906 C 48.851562 504.929688 49.070312 504.929688 49.511719 504.929688 L 57.171875 504.929688 "/>
<path style=" stroke:none;fill-rule:nonzero;fill:rgb(66.665649%,66.665649%,66.665649%);fill-opacity:1;" d="M 413 209.03125 L 413.050781 209.03125 C 413.441406 209.03125 413.792969 209.273438 413.925781 209.644531 C 414 209.878906 414 210.097656 414 210.539062 L 414 497.757812 C 414 505.859375 414 506.078125 413.925781 506.316406 C 413.792969 506.683594 413.441406 506.929688 413.050781 506.929688 C 413 506.929688 413 506.929688 413 506.929688 L 412.949219 506.929688 C 412.558594 506.929688 412.207031 506.683594 412.074219 506.316406 C 412 506.078125 412 505.859375 412 505.417969 L 412 218.203125 C 412 210.097656 412 209.878906 412.074219 209.644531 C 412.207031 209.273438 412.558594 209.03125 412.949219 209.03125 C 413 209.03125 413 209.03125 413 209.03125 "/>
<path style=" stroke:none;fill-rule:nonzero;fill:rgb(66.665649%,66.665649%,66.665649%);fill-opacity:1;" d="M 423.171875 209.03125 L 768.828125 209.03125 C 776.929688 209.03125 777.152344 209.03125 777.386719 209.105469 C 777.753906 209.238281 778 209.589844 778 209.980469 C 778 210.03125 778 210.03125 778 210.03125 L 778 210.078125 C 778 210.472656 777.753906 210.820312 777.386719 210.953125 C 777.152344 211.03125 776.929688 211.03125 776.488281 211.03125 L 423.171875 211.03125 C 415.070312 211.03125 414.847656 211.03125 414.613281 210.953125 C 414.246094 210.820312 414 210.472656 414 210.078125 C 414 210.03125 414 210.03125 414 210.03125 L 414 209.980469 C 414 209.589844 414.246094 209.238281 414.613281 209.105469 C 414.847656 209.03125 415.070312 209.03125 415.511719 209.03125 L 423.171875 209.03125 "/>
<path style=" stroke:none;fill-rule:nonzero;fill:rgb(66.665649%,66.665649%,66.665649%);fill-opacity:1;" d="M 779 209.03125 L 779.050781 209.03125 C 779.441406 209.03125 779.792969 209.273438 779.925781 209.644531 C 780 209.878906 780 210.097656 780 210.539062 L 780 497.757812 C 780 505.859375 780 506.078125 779.925781 506.316406 C 779.792969 506.683594 779.441406 506.929688 779.050781 506.929688 C 779 506.929688 779 506.929688 779 506.929688 L 778.949219 506.929688 C 778.558594 506.929688 778.207031 506.683594 778.074219 506.316406 C 778 506.078125 778 505.859375 778 505.417969 L 778 218.203125 C 778 210.097656 778 209.878906 778.074219 209.644531 C 778.207031 209.273438 778.558594 209.03125 778.949219 209.03125 C 779 209.03125 779 209.03125 779 209.03125 "/>
<path style=" stroke:none;fill-rule:nonzero;fill:rgb(66.665649%,66.665649%,66.665649%);fill-opacity:1;" d="M 423.171875 504.929688 L 768.828125 504.929688 C 776.929688 504.929688 777.152344 504.929688 777.386719 505.003906 C 777.753906 505.136719 778 505.488281 778 505.878906 C 778 505.929688 778 505.929688 778 505.929688 L 778 505.976562 C 778 506.371094 777.753906 506.71875 777.386719 506.851562 C 777.152344 506.929688 776.929688 506.929688 776.488281 506.929688 L 423.171875 506.929688 C 415.070312 506.929688 414.847656 506.929688 414.613281 506.851562 C 414.246094 506.71875 414 506.371094 414 505.976562 C 414 505.929688 414 505.929688 414 505.929688 L 414 505.878906 C 414 505.488281 414.246094 505.136719 414.613281 505.003906 C 414.847656 504.929688 415.070312 504.929688 415.511719 504.929688 L 423.171875 504.929688 "/>
<path style=" stroke:none;fill-rule:nonzero;fill:rgb(66.665649%,66.665649%,66.665649%);fill-opacity:1;" d="M 779 209.03125 L 779.050781 209.03125 C 779.441406 209.03125 779.792969 209.273438 779.925781 209.644531 C 780 209.878906 780 210.097656 780 210.539062 L 780 497.757812 C 780 505.859375 780 506.078125 779.925781 506.316406 C 779.792969 506.683594 779.441406 506.929688 779.050781 506.929688 C 779 506.929688 779 506.929688 779 506.929688 L 778.949219 506.929688 C 778.558594 506.929688 778.207031 506.683594 778.074219 506.316406 C 778 506.078125 778 505.859375 778 505.417969 L 778 218.203125 C 778 210.097656 778 209.878906 778.074219 209.644531 C 778.207031 209.273438 778.558594 209.03125 778.949219 209.03125 C 779 209.03125 779 209.03125 779 209.03125 "/>
<path style=" stroke:none;fill-rule:nonzero;fill:rgb(66.665649%,66.665649%,66.665649%);fill-opacity:1;" d="M 789.171875 209.03125 L 1134.828125 209.03125 C 1142.929688 209.03125 1143.152344 209.03125 1143.386719 209.105469 C 1143.753906 209.238281 1144 209.589844 1144 209.980469 C 1144 210.03125 1144 210.03125 1144 210.03125 L 1144 210.078125 C 1144 210.472656 1143.753906 210.820312 1143.386719 210.953125 C 1143.152344 211.03125 1142.929688 211.03125 1142.488281 211.03125 L 789.171875 211.03125 C 781.070312 211.03125 780.847656 211.03125 780.613281 210.953125 C 780.246094 210.820312 780 210.472656 780 210.078125 C 780 210.03125 780 210.03125 780 210.03125 L 780 209.980469 C 780 209.589844 780.246094 209.238281 780.613281 209.105469 C 780.847656 209.03125 781.070312 209.03125 781.511719 209.03125 L 789.171875 209.03125 "/>
<path style=" stroke:none;fill-rule:nonzero;fill:rgb(66.665649%,66.665649%,66.665649%);fill-opacity:1;" d="M 1145 209.03125 L 1145.050781 209.03125 C 1145.441406 209.03125 1145.792969 209.273438 1145.925781 209.644531 C 1146 209.878906 1146 210.097656 1146 210.539062 L 1146 497.757812 C 1146 505.859375 1146 506.078125 1145.925781 506.316406 C 1145.792969 506.683594 1145.441406 506.929688 1145.050781 506.929688 C 1145 506.929688 1145 506.929688 1145 506.929688 L 1144.949219 506.929688 C 1144.558594 506.929688 1144.207031 506.683594 1144.074219 506.316406 C 1144 506.078125 1144 505.859375 1144 505.417969 L 1144 218.203125 C 1144 210.097656 1144 209.878906 1144.074219 209.644531 C 1144.207031 209.273438 1144.558594 209.03125 1144.949219 209.03125 C 1145 209.03125 1145 209.03125 1145 209.03125 "/>
<path style=" stroke:none;fill-rule:nonzero;fill:rgb(66.665649%,66.665649%,66.665649%);fill-opacity:1;" d="M 789.171875 504.929688 L 1134.828125 504.929688 C 1142.929688 504.929688 1143.152344 504.929688 1143.386719 505.003906 C 1143.753906 505.136719 1144 505.488281 1144 505.878906 C 1144 505.929688 1144 505.929688 1144 505.929688 L 1144 505.976562 C 1144 506.371094 1143.753906 506.71875 1143.386719 506.851562 C 1143.152344 506.929688 1142.929688 506.929688 1142.488281 506.929688 L 789.171875 506.929688 C 781.070312 506.929688 780.847656 506.929688 780.613281 506.851562 C 780.246094 506.71875 780 506.371094 780 505.976562 C 780 505.929688 780 505.929688 780 505.929688 L 780 505.878906 C 780 505.488281 780.246094 505.136719 780.613281 505.003906 C 780.847656 504.929688 781.070312 504.929688 781.511719 504.929688 L 789.171875 504.929688 "/>
<path style=" stroke:none;fill-rule:nonzero;fill:rgb(66.665649%,66.665649%,66.665649%);fill-opacity:1;" d="M 47 504.929688 L 47.050781 504.929688 C 47.441406 504.929688 47.792969 505.171875 47.925781 505.539062 C 48 505.777344 48 505.996094 48 506.4375 L 48 545.171875 C 48 553.273438 48 553.492188 47.925781 553.730469 C 47.792969 554.097656 47.441406 554.34375 47.050781 554.34375 C 47 554.34375 47 554.34375 47 554.34375 L 46.949219 554.34375 C 46.558594 554.34375 46.207031 554.097656 46.074219 553.730469 C 46 553.492188 46 553.273438 46 552.832031 L 46 514.101562 C 46 505.996094 46 505.777344 46.074219 505.539062 C 46.207031 505.171875 46.558594 504.929688 46.949219 504.929688 C 47 504.929688 47 504.929688 47 504.929688 "/>
<path style=" stroke:none;fill-rule:nonzero;fill:rgb(66.665649%,66.665649%,66.665649%);fill-opacity:1;" d="M 57.171875 504.929688 L 402.828125 504.929688 C 410.929688 504.929688 411.152344 504.929688 411.386719 505.003906 C 411.753906 505.136719 412 505.488281 412 505.878906 C 412 505.929688 412 505.929688 412 505.929688 L 412 505.976562 C 412 506.371094 411.753906 506.71875 411.386719 506.851562 C 411.152344 506.929688 410.929688 506.929688 410.488281 506.929688 L 57.171875 506.929688 C 49.070312 506.929688 48.851562 506.929688 48.613281 506.851562 C 48.246094 506.71875 48 506.371094 48 505.976562 C 48 505.929688 48 505.929688 48 505.929688 L 48 505.878906 C 48 505.488281 48.246094 505.136719 48.613281 505.003906 C 48.851562 504.929688 49.070312 504.929688 49.511719 504.929688 L 57.171875 504.929688 "/>
<path style=" stroke:none;fill-rule:nonzero;fill:rgb(66.665649%,66.665649%,66.665649%);fill-opacity:1;" d="M 413 504.929688 L 413.050781 504.929688 C 413.441406 504.929688 413.792969 505.171875 413.925781 505.539062 C 414 505.777344 414 505.996094 414 506.4375 L 414 545.171875 C 414 553.273438 414 553.492188 413.925781 553.730469 C 413.792969 554.097656 413.441406 554.34375 413.050781 554.34375 C 413 554.34375 413 554.34375 413 554.34375 L 412.949219 554.34375 C 412.558594 554.34375 412.207031 554.097656 412.074219 553.730469 C 412 553.492188 412 553.273438 412 552.832031 L 412 514.101562 C 412 505.996094 412 505.777344 412.074219 505.539062 C 412.207031 505.171875 412.558594 504.929688 412.949219 504.929688 C 413 504.929688 413 504.929688 413 504.929688 "/>
<path style=" stroke:none;fill-rule:nonzero;fill:rgb(66.665649%,66.665649%,66.665649%);fill-opacity:1;" d="M 57.171875 552.34375 L 402.828125 552.34375 C 410.929688 552.34375 411.152344 552.34375 411.386719 552.417969 C 411.753906 552.550781 412 552.902344 412 553.292969 C 412 553.34375 412 553.34375 412 553.34375 L 412 553.390625 C 412 553.785156 411.753906 554.132812 411.386719 554.265625 C 411.152344 554.34375 410.929688 554.34375 410.488281 554.34375 L 57.171875 554.34375 C 49.070312 554.34375 48.851562 554.34375 48.613281 554.265625 C 48.246094 554.132812 48 553.785156 48 553.390625 C 48 553.34375 48 553.34375 48 553.34375 L 48 553.292969 C 48 552.902344 48.246094 552.550781 48.613281 552.417969 C 48.851562 552.34375 49.070312 552.34375 49.511719 552.34375 L 57.171875 552.34375 "/>
<path style=" stroke:none;fill-rule:nonzero;fill:rgb(66.665649%,66.665649%,66.665649%);fill-opacity:1;" d="M 413 504.929688 L 413.050781 504.929688 C 413.441406 504.929688 413.792969 505.171875 413.925781 505.539062 C 414 505.777344 414 505.996094 414 506.4375 L 414 545.171875 C 414 553.273438 414 553.492188 413.925781 553.730469 C 413.792969 554.097656 413.441406 554.34375 413.050781 554.34375 C 413 554.34375 413 554.34375 413 554.34375 L 412.949219 554.34375 C 412.558594 554.34375 412.207031 554.097656 412.074219 553.730469 C 412 553.492188 412 553.273438 412 552.832031 L 412 514.101562 C 412 505.996094 412 505.777344 412.074219 505.539062 C 412.207031 505.171875 412.558594 504.929688 412.949219 504.929688 C 413 504.929688 413 504.929688 413 504.929688 "/>
<path style=" stroke:none;fill-rule:nonzero;fill:rgb(66.665649%,66.665649%,66.665649%);fill-opacity:1;" d="M 423.171875 504.929688 L 768.828125 504.929688 C 776.929688 504.929688 777.152344 504.929688 777.386719 505.003906 C 777.753906 505.136719 778 505.488281 778 505.878906 C 778 505.929688 778 505.929688 778 505.929688 L 778 505.976562 C 778 506.371094 777.753906 506.71875 777.386719 506.851562 C 777.152344 506.929688 776.929688 506.929688 776.488281 506.929688 L 423.171875 506.929688 C 415.070312 506.929688 414.847656 506.929688 414.613281 506.851562 C 414.246094 506.71875 414 506.371094 414 505.976562 C 414 505.929688 414 505.929688 414 505.929688 L 414 505.878906 C 414 505.488281 414.246094 505.136719 414.613281 505.003906 C 414.847656 504.929688 415.070312 504.929688 415.511719 504.929688 L 423.171875 504.929688 "/>
<path style=" stroke:none;fill-rule:nonzero;fill:rgb(66.665649%,66.665649%,66.665649%);fill-opacity:1;" d="M 779 504.929688 L 779.050781 504.929688 C 779.441406 504.929688 779.792969 505.171875 779.925781 505.539062 C 780 505.777344 780 505.996094 780 506.4375 L 780 545.171875 C 780 553.273438 780 553.492188 779.925781 553.730469 C 779.792969 554.097656 779.441406 554.34375 779.050781 554.34375 C 779 554.34375 779 554.34375 779 554.34375 L 778.949219 554.34375 C 778.558594 554.34375 778.207031 554.097656 778.074219 553.730469 C 778 553.492188 778 553.273438 778 552.832031 L 778 514.101562 C 778 505.996094 778 505.777344 778.074219 505.539062 C 778.207031 505.171875 778.558594 504.929688 778.949219 504.929688 C 779 504.929688 779 504.929688 779 504.929688 "/>
<path style=" stroke:none;fill-rule:nonzero;fill:rgb(66.665649%,66.665649%,66.665649%);fill-opacity:1;" d="M 423.171875 552.34375 L 768.828125 552.34375 C 776.929688 552.34375 777.152344 552.34375 777.386719 552.417969 C 777.753906 552.550781 778 552.902344 778 553.292969 C 778 553.34375 778 553.34375 778 553.34375 L 778 553.390625 C 778 553.785156 777.753906 554.132812 777.386719 554.265625 C 777.152344 554.34375 776.929688 554.34375 776.488281 554.34375 L 423.171875 554.34375 C 415.070312 554.34375 414.847656 554.34375 414.613281 554.265625 C 414.246094 554.132812 414 553.785156 414 553.390625 C 414 553.34375 414 553.34375 414 553.34375 L 414 553.292969 C 414 552.902344 414.246094 552.550781 414.613281 552.417969 C 414.847656 552.34375 415.070312 552.34375 415.511719 552.34375 L 423.171875 552.34375 "/>
<path style=" stroke:none;fill-rule:nonzero;fill:rgb(66.665649%,66.665649%,66.665649%);fill-opacity:1;" d="M 779 504.929688 L 779.050781 504.929688 C 779.441406 504.929688 779.792969 505.171875 779.925781 505.539062 C 780 505.777344 780 505.996094 780 506.4375 L 780 545.171875 C 780 553.273438 780 553.492188 779.925781 553.730469 C 779.792969 554.097656 779.441406 554.34375 779.050781 554.34375 C 779 554.34375 779 554.34375 779 554.34375 L 778.949219 554.34375 C 778.558594 554.34375 778.207031 554.097656 778.074219 553.730469 C 778 553.492188 778 553.273438 778 552.832031 L 778 514.101562 C 778 505.996094 778 505.777344 778.074219 505.539062 C 778.207031 505.171875 778.558594 504.929688 778.949219 504.929688 C 779 504.929688 779 504.929688 779 504.929688 "/>
<path style=" stroke:none;fill-rule:nonzero;fill:rgb(66.665649%,66.665649%,66.665649%);fill-opacity:1;" d="M 789.171875 504.929688 L 1134.828125 504.929688 C 1142.929688 504.929688 1143.152344 504.929688 1143.386719 505.003906 C 1143.753906 505.136719 1144 505.488281 1144 505.878906 C 1144 505.929688 1144 505.929688 1144 505.929688 L 1144 505.976562 C 1144 506.371094 1143.753906 506.71875 1143.386719 506.851562 C 1143.152344 506.929688 1142.929688 506.929688 1142.488281 506.929688 L 789.171875 506.929688 C 781.070312 506.929688 780.847656 506.929688 780.613281 506.851562 C 780.246094 506.71875 780 506.371094 780 505.976562 C 780 505.929688 780 505.929688 780 505.929688 L 780 505.878906 C 780 505.488281 780.246094 505.136719 780.613281 505.003906 C 780.847656 504.929688 781.070312 504.929688 781.511719 504.929688 L 789.171875 504.929688 "/>
<path style=" stroke:none;fill-rule:nonzero;fill:rgb(66.665649%,66.665649%,66.665649%);fill-opacity:1;" d="M 1145 504.929688 L 1145.050781 504.929688 C 1145.441406 504.929688 1145.792969 505.171875 1145.925781 505.539062 C 1146 505.777344 1146 505.996094 1146 506.4375 L 1146 545.171875 C 1146 553.273438 1146 553.492188 1145.925781 553.730469 C 1145.792969 554.097656 1145.441406 554.34375 1145.050781 554.34375 C 1145 554.34375 1145 554.34375 1145 554.34375 L 1144.949219 554.34375 C 1144.558594 554.34375 1144.207031 554.097656 1144.074219 553.730469 C 1144 553.492188 1144 553.273438 1144 552.832031 L 1144 514.101562 C 1144 505.996094 1144 505.777344 1144.074219 505.539062 C 1144.207031 505.171875 1144.558594 504.929688 1144.949219 504.929688 C 1145 504.929688 1145 504.929688 1145 504.929688 "/>
<path style=" stroke:none;fill-rule:nonzero;fill:rgb(66.665649%,66.665649%,66.665649%);fill-opacity:1;" d="M 789.171875 552.34375 L 1134.828125 552.34375 C 1142.929688 552.34375 1143.152344 552.34375 1143.386719 552.417969 C 1143.753906 552.550781 1144 552.902344 1144 553.292969 C 1144 553.34375 1144 553.34375 1144 553.34375 L 1144 553.390625 C 1144 553.785156 1143.753906 554.132812 1143.386719 554.265625 C 1143.152344 554.34375 1142.929688 554.34375 1142.488281 554.34375 L 789.171875 554.34375 C 781.070312 554.34375 780.847656 554.34375 780.613281 554.265625 C 780.246094 554.132812 780 553.785156 780 553.390625 C 780 553.34375 780 553.34375 780 553.34375 L 780 553.292969 C 780 552.902344 780.246094 552.550781 780.613281 552.417969 C 780.847656 552.34375 781.070312 552.34375 781.511719 552.34375 L 789.171875 552.34375 "/>
<path style=" stroke:none;fill-rule:nonzero;fill:rgb(66.665649%,66.665649%,66.665649%);fill-opacity:1;" d="M 47 552.34375 L 47.050781 552.34375 C 47.441406 552.34375 47.792969 552.585938 47.925781 552.953125 C 48 553.191406 48 553.410156 48 553.851562 L 48 716.828125 C 48 724.929688 48 725.148438 47.925781 725.386719 C 47.792969 725.753906 47.441406 726 47.050781 726 C 47 726 47 726 47 726 L 46.949219 726 C 46.558594 726 46.207031 725.753906 46.074219 725.386719 C 46 725.148438 46 724.929688 46 724.488281 L 46 561.515625 C 46 553.410156 46 553.191406 46.074219 552.953125 C 46.207031 552.585938 46.558594 552.34375 46.949219 552.34375 C 47 552.34375 47 552.34375 47 552.34375 "/>
<path style=" stroke:none;fill-rule:nonzero;fill:rgb(66.665649%,66.665649%,66.665649%);fill-opacity:1;" d="M 57.171875 552.34375 L 402.828125 552.34375 C 410.929688 552.34375 411.152344 552.34375 411.386719 552.417969 C 411.753906 552.550781 412 552.902344 412 553.292969 C 412 553.34375 412 553.34375 412 553.34375 L 412 553.390625 C 412 553.785156 411.753906 554.132812 411.386719 554.265625 C 411.152344 554.34375 410.929688 554.34375 410.488281 554.34375 L 57.171875 554.34375 C 49.070312 554.34375 48.851562 554.34375 48.613281 554.265625 C 48.246094 554.132812 48 553.785156 48 553.390625 C 48 553.34375 48 553.34375 48 553.34375 L 48 553.292969 C 48 552.902344 48.246094 552.550781 48.613281 552.417969 C 48.851562 552.34375 49.070312 552.34375 49.511719 552.34375 L 57.171875 552.34375 "/>
<path style=" stroke:none;fill-rule:nonzero;fill:rgb(66.665649%,66.665649%,66.665649%);fill-opacity:1;" d="M 413 552.34375 L 413.050781 552.34375 C 413.441406 552.34375 413.792969 552.585938 413.925781 552.953125 C 414 553.191406 414 553.410156 414 553.851562 L 414 716.828125 C 414 724.929688 414 725.148438 413.925781 725.386719 C 413.792969 725.753906 413.441406 726 413.050781 726 C 413 726 413 726 413 726 L 412.949219 726 C 412.558594 726 412.207031 725.753906 412.074219 725.386719 C 412 725.148438 412 724.929688 412 724.488281 L 412 561.515625 C 412 553.410156 412 553.191406 412.074219 552.953125 C 412.207031 552.585938 412.558594 552.34375 412.949219 552.34375 C 413 552.34375 413 552.34375 413 552.34375 "/>
<path style=" stroke:none;fill-rule:nonzero;fill:rgb(66.665649%,66.665649%,66.665649%);fill-opacity:1;" d="M 57.171875 724 L 402.828125 724 C 410.929688 724 411.152344 724 411.386719 724.074219 C 411.753906 724.207031 412 724.558594 412 724.949219 C 412 725 412 725 412 725 L 412 725.046875 C 412 725.441406 411.753906 725.789062 411.386719 725.921875 C 411.152344 726 410.929688 726 410.488281 726 L 57.171875 726 C 49.070312 726 48.851562 726 48.613281 725.921875 C 48.246094 725.789062 48 725.441406 48 725.046875 C 48 725 48 725 48 725 L 48 724.949219 C 48 724.558594 48.246094 724.207031 48.613281 724.074219 C 48.851562 724 49.070312 724 49.511719 724 L 57.171875 724 "/>
<path style=" stroke:none;fill-rule:nonzero;fill:rgb(66.665649%,66.665649%,66.665649%);fill-opacity:1;" d="M 413 552.34375 L 413.050781 552.34375 C 413.441406 552.34375 413.792969 552.585938 413.925781 552.953125 C 414 553.191406 414 553.410156 414 553.851562 L 414 716.828125 C 414 724.929688 414 725.148438 413.925781 725.386719 C 413.792969 725.753906 413.441406 726 413.050781 726 C 413 726 413 726 413 726 L 412.949219 726 C 412.558594 726 412.207031 725.753906 412.074219 725.386719 C 412 725.148438 412 724.929688 412 724.488281 L 412 561.515625 C 412 553.410156 412 553.191406 412.074219 552.953125 C 412.207031 552.585938 412.558594 552.34375 412.949219 552.34375 C 413 552.34375 413 552.34375 413 552.34375 "/>
<path style=" stroke:none;fill-rule:nonzero;fill:rgb(66.665649%,66.665649%,66.665649%);fill-opacity:1;" d="M 423.171875 552.34375 L 768.828125 552.34375 C 776.929688 552.34375 777.152344 552.34375 777.386719 552.417969 C 777.753906 552.550781 778 552.902344 778 553.292969 C 778 553.34375 778 553.34375 778 553.34375 L 778 553.390625 C 778 553.785156 777.753906 554.132812 777.386719 554.265625 C 777.152344 554.34375 776.929688 554.34375 776.488281 554.34375 L 423.171875 554.34375 C 415.070312 554.34375 414.847656 554.34375 414.613281 554.265625 C 414.246094 554.132812 414 553.785156 414 553.390625 C 414 553.34375 414 553.34375 414 553.34375 L 414 553.292969 C 414 552.902344 414.246094 552.550781 414.613281 552.417969 C 414.847656 552.34375 415.070312 552.34375 415.511719 552.34375 L 423.171875 552.34375 "/>
<path style=" stroke:none;fill-rule:nonzero;fill:rgb(66.665649%,66.665649%,66.665649%);fill-opacity:1;" d="M 779 552.34375 L 779.050781 552.34375 C 779.441406 552.34375 779.792969 552.585938 779.925781 552.953125 C 780 553.191406 780 553.410156 780 553.851562 L 780 716.828125 C 780 724.929688 780 725.148438 779.925781 725.386719 C 779.792969 725.753906 779.441406 726 779.050781 726 C 779 726 779 726 779 726 L 778.949219 726 C 778.558594 726 778.207031 725.753906 778.074219 725.386719 C 778 725.148438 778 724.929688 778 724.488281 L 778 561.515625 C 778 553.410156 778 553.191406 778.074219 552.953125 C 778.207031 552.585938 778.558594 552.34375 778.949219 552.34375 C 779 552.34375 779 552.34375 779 552.34375 "/>
<path style=" stroke:none;fill-rule:nonzero;fill:rgb(66.665649%,66.665649%,66.665649%);fill-opacity:1;" d="M 423.171875 724 L 768.828125 724 C 776.929688 724 777.152344 724 777.386719 724.074219 C 777.753906 724.207031 778 724.558594 778 724.949219 C 778 725 778 725 778 725 L 778 725.046875 C 778 725.441406 777.753906 725.789062 777.386719 725.921875 C 777.152344 726 776.929688 726 776.488281 726 L 423.171875 726 C 415.070312 726 414.847656 726 414.613281 725.921875 C 414.246094 725.789062 414 725.441406 414 725.046875 C 414 725 414 725 414 725 L 414 724.949219 C 414 724.558594 414.246094 724.207031 414.613281 724.074219 C 414.847656 724 415.070312 724 415.511719 724 L 423.171875 724 "/>
<path style=" stroke:none;fill-rule:nonzero;fill:rgb(66.665649%,66.665649%,66.665649%);fill-opacity:1;" d="M 779 552.34375 L 779.050781 552.34375 C 779.441406 552.34375 779.792969 552.585938 779.925781 552.953125 C 780 553.191406 780 553.410156 780 553.851562 L 780 716.828125 C 780 724.929688 780 725.148438 779.925781 725.386719 C 779.792969 725.753906 779.441406 726 779.050781 726 C 779 726 779 726 779 726 L 778.949219 726 C 778.558594 726 778.207031 725.753906 778.074219 725.386719 C 778 725.148438 778 724.929688 778 724.488281 L 778 561.515625 C 778 553.410156 778 553.191406 778.074219 552.953125 C 778.207031 552.585938 778.558594 552.34375 778.949219 552.34375 C 779 552.34375 779 552.34375 779 552.34375 "/>
<path style=" stroke:none;fill-rule:nonzero;fill:rgb(66.665649%,66.665649%,66.665649%);fill-opacity:1;" d="M 789.171875 552.34375 L 1134.828125 552.34375 C 1142.929688 552.34375 1143.152344 552.34375 1143.386719 552.417969 C 1143.753906 552.550781 1144 552.902344 1144 553.292969 C 1144 553.34375 1144 553.34375 1144 553.34375 L 1144 553.390625 C 1144 553.785156 1143.753906 554.132812 1143.386719 554.265625 C 1143.152344 554.34375 1142.929688 554.34375 1142.488281 554.34375 L 789.171875 554.34375 C 781.070312 554.34375 780.847656 554.34375 780.613281 554.265625 C 780.246094 554.132812 780 553.785156 780 553.390625 C 780 553.34375 780 553.34375 780 553.34375 L 780 553.292969 C 780 552.902344 780.246094 552.550781 780.613281 552.417969 C 780.847656 552.34375 781.070312 552.34375 781.511719 552.34375 L 789.171875 552.34375 "/>
<path style=" stroke:none;fill-rule:nonzero;fill:rgb(66.665649%,66.665649%,66.665649%);fill-opacity:1;" d="M 1145 552.34375 L 1145.050781 552.34375 C 1145.441406 552.34375 1145.792969 552.585938 1145.925781 552.953125 C 1146 553.191406 1146 553.410156 1146 553.851562 L 1146 716.828125 C 1146 724.929688 1146 725.148438 1145.925781 725.386719 C 1145.792969 725.753906 1145.441406 726 1145.050781 726 C 1145 726 1145 726 1145 726 L 1144.949219 726 C 1144.558594 726 1144.207031 725.753906 1144.074219 725.386719 C 1144 725.148438 1144 724.929688 1144 724.488281 L 1144 561.515625 C 1144 553.410156 1144 553.191406 1144.074219 552.953125 C 1144.207031 552.585938 1144.558594 552.34375 1144.949219 552.34375 C 1145 552.34375 1145 552.34375 1145 552.34375 "/>
<path style=" stroke:none;fill-rule:nonzero;fill:rgb(66.665649%,66.665649%,66.665649%);fill-opacity:1;" d="M 789.171875 724 L 1134.828125 724 C 1142.929688 724 1143.152344 724 1143.386719 724.074219 C 1143.753906 724.207031 1144 724.558594 1144 724.949219 C 1144 725 1144 725 1144 725 L 1144 725.046875 C 1144 725.441406 1143.753906 725.789062 1143.386719 725.921875 C 1143.152344 726 1142.929688 726 1142.488281 726 L 789.171875 726 C 781.070312 726 780.847656 726 780.613281 725.921875 C 780.246094 725.789062 780 725.441406 780 725.046875 C 780 725 780 725 780 725 L 780 724.949219 C 780 724.558594 780.246094 724.207031 780.613281 724.074219 C 780.847656 724 781.070312 724 781.511719 724 L 789.171875 724 "/>
<path style=" stroke:none;fill-rule:nonzero;fill:rgb(66.665649%,66.665649%,66.665649%);fill-opacity:1;" d="M 47 724 L 47.050781 724 C 47.441406 724 47.792969 724.242188 47.925781 724.609375 C 48 724.847656 48 725.066406 48 725.507812 L 48 1012.726562 C 48 1020.828125 48 1021.046875 47.925781 1021.285156 C 47.792969 1021.652344 47.441406 1021.898438 47.050781 1021.898438 C 47 1021.898438 47 1021.898438 47 1021.898438 L 46.949219 1021.898438 C 46.558594 1021.898438 46.207031 1021.652344 46.074219 1021.285156 C 46 1021.046875 46 1020.828125 46 1020.386719 L 46 733.171875 C 46 725.066406 46 724.847656 46.074219 724.609375 C 46.207031 724.242188 46.558594 724 46.949219 724 C 47 724 47 724 47 724 "/>
<path style=" stroke:none;fill-rule:nonzero;fill:rgb(66.665649%,66.665649%,66.665649%);fill-opacity:1;" d="M 57.171875 724 L 402.828125 724 C 410.929688 724 411.152344 724 411.386719 724.074219 C 411.753906 724.207031 412 724.558594 412 724.949219 C 412 725 412 725 412 725 L 412 725.046875 C 412 725.441406 411.753906 725.789062 411.386719 725.921875 C 411.152344 726 410.929688 726 410.488281 726 L 57.171875 726 C 49.070312 726 48.851562 726 48.613281 725.921875 C 48.246094 725.789062 48 725.441406 48 725.046875 C 48 725 48 725 48 725 L 48 724.949219 C 48 724.558594 48.246094 724.207031 48.613281 724.074219 C 48.851562 724 49.070312 724 49.511719 724 L 57.171875 724 "/>
<path style=" stroke:none;fill-rule:nonzero;fill:rgb(66.665649%,66.665649%,66.665649%);fill-opacity:1;" d="M 413 724 L 413.050781 724 C 413.441406 724 413.792969 724.242188 413.925781 724.609375 C 414 724.847656 414 725.066406 414 725.507812 L 414 1012.726562 C 414 1020.828125 414 1021.046875 413.925781 1021.285156 C 413.792969 1021.652344 413.441406 1021.898438 413.050781 1021.898438 C 413 1021.898438 413 1021.898438 413 1021.898438 L 412.949219 1021.898438 C 412.558594 1021.898438 412.207031 1021.652344 412.074219 1021.285156 C 412 1021.046875 412 1020.828125 412 1020.386719 L 412 733.171875 C 412 725.066406 412 724.847656 412.074219 724.609375 C 412.207031 724.242188 412.558594 724 412.949219 724 C 413 724 413 724 413 724 "/>
<path style=" stroke:none;fill-rule:nonzero;fill:rgb(66.665649%,66.665649%,66.665649%);fill-opacity:1;" d="M 57.171875 1019.898438 L 402.828125 1019.898438 C 410.929688 1019.898438 411.152344 1019.898438 411.386719 1019.972656 C 411.753906 1020.105469 412 1020.457031 412 1020.847656 C 412 1020.898438 412 1020.898438 412 1020.898438 L 412 1020.945312 C 412 1021.339844 411.753906 1021.6875 411.386719 1021.820312 C 411.152344 1021.898438 410.929688 1021.898438 410.488281 1021.898438 L 57.171875 1021.898438 C 49.070312 1021.898438 48.851562 1021.898438 48.613281 1021.820312 C 48.246094 1021.6875 48 1021.339844 48 1020.945312 C 48 1020.898438 48 1020.898438 48 1020.898438 L 48 1020.847656 C 48 1020.457031 48.246094 1020.105469 48.613281 1019.972656 C 48.851562 1019.898438 49.070312 1019.898438 49.511719 1019.898438 L 57.171875 1019.898438 "/>
<path style=" stroke:none;fill-rule:nonzero;fill:rgb(66.665649%,66.665649%,66.665649%);fill-opacity:1;" d="M 413 724 L 413.050781 724 C 413.441406 724 413.792969 724.242188 413.925781 724.609375 C 414 724.847656 414 725.066406 414 725.507812 L 414 1012.726562 C 414 1020.828125 414 1021.046875 413.925781 1021.285156 C 413.792969 1021.652344 413.441406 1021.898438 413.050781 1021.898438 C 413 1021.898438 413 1021.898438 413 1021.898438 L 412.949219 1021.898438 C 412.558594 1021.898438 412.207031 1021.652344 412.074219 1021.285156 C 412 1021.046875 412 1020.828125 412 1020.386719 L 412 733.171875 C 412 725.066406 412 724.847656 412.074219 724.609375 C 412.207031 724.242188 412.558594 724 412.949219 724 C 413 724 413 724 413 724 "/>
<path style=" stroke:none;fill-rule:nonzero;fill:rgb(66.665649%,66.665649%,66.665649%);fill-opacity:1;" d="M 423.171875 724 L 768.828125 724 C 776.929688 724 777.152344 724 777.386719 724.074219 C 777.753906 724.207031 778 724.558594 778 724.949219 C 778 725 778 725 778 725 L 778 725.046875 C 778 725.441406 777.753906 725.789062 777.386719 725.921875 C 777.152344 726 776.929688 726 776.488281 726 L 423.171875 726 C 415.070312 726 414.847656 726 414.613281 725.921875 C 414.246094 725.789062 414 725.441406 414 725.046875 C 414 725 414 725 414 725 L 414 724.949219 C 414 724.558594 414.246094 724.207031 414.613281 724.074219 C 414.847656 724 415.070312 724 415.511719 724 L 423.171875 724 "/>
<path style=" stroke:none;fill-rule:nonzero;fill:rgb(66.665649%,66.665649%,66.665649%);fill-opacity:1;" d="M 779 724 L 779.050781 724 C 779.441406 724 779.792969 724.242188 779.925781 724.609375 C 780 724.847656 780 725.066406 780 725.507812 L 780 1012.726562 C 780 1020.828125 780 1021.046875 779.925781 1021.285156 C 779.792969 1021.652344 779.441406 1021.898438 779.050781 1021.898438 C 779 1021.898438 779 1021.898438 779 1021.898438 L 778.949219 1021.898438 C 778.558594 1021.898438 778.207031 1021.652344 778.074219 1021.285156 C 778 1021.046875 778 1020.828125 778 1020.386719 L 778 733.171875 C 778 725.066406 778 724.847656 778.074219 724.609375 C 778.207031 724.242188 778.558594 724 778.949219 724 C 779 724 779 724 779 724 "/>
<path style=" stroke:none;fill-rule:nonzero;fill:rgb(66.665649%,66.665649%,66.665649%);fill-opacity:1;" d="M 423.171875 1019.898438 L 768.828125 1019.898438 C 776.929688 1019.898438 777.152344 1019.898438 777.386719 1019.972656 C 777.753906 1020.105469 778 1020.457031 778 1020.847656 C 778 1020.898438 778 1020.898438 778 1020.898438 L 778 1020.945312 C 778 1021.339844 777.753906 1021.6875 777.386719 1021.820312 C 777.152344 1021.898438 776.929688 1021.898438 776.488281 1021.898438 L 423.171875 1021.898438 C 415.070312 1021.898438 414.847656 1021.898438 414.613281 1021.820312 C 414.246094 1021.6875 414 1021.339844 414 1020.945312 C 414 1020.898438 414 1020.898438 414 1020.898438 L 414 1020.847656 C 414 1020.457031 414.246094 1020.105469 414.613281 1019.972656 C 414.847656 1019.898438 415.070312 1019.898438 415.511719 1019.898438 L 423.171875 1019.898438 "/>
<path style=" stroke:none;fill-rule:nonzero;fill:rgb(66.665649%,66.665649%,66.665649%);fill-opacity:1;" d="M 779 724 L 779.050781 724 C 779.441406 724 779.792969 724.242188 779.925781 724.609375 C 780 724.847656 780 725.066406 780 725.507812 L 780 1012.726562 C 780 1020.828125 780 1021.046875 779.925781 1021.285156 C 779.792969 1021.652344 779.441406 1021.898438 779.050781 1021.898438 C 779 1021.898438 779 1021.898438 779 1021.898438 L 778.949219 1021.898438 C 778.558594 1021.898438 778.207031 1021.652344 778.074219 1021.285156 C 778 1021.046875 778 1020.828125 778 1020.386719 L 778 733.171875 C 778 725.066406 778 724.847656 778.074219 724.609375 C 778.207031 724.242188 778.558594 724 778.949219 724 C 779 724 779 724 779 724 "/>
<path style=" stroke:none;fill-rule:nonzero;fill:rgb(66.665649%,66.665649%,66.665649%);fill-opacity:1;" d="M 789.171875 724 L 1134.828125 724 C 1142.929688 724 1143.152344 724 1143.386719 724.074219 C 1143.753906 724.207031 1144 724.558594 1144 724.949219 C 1144 725 1144 725 1144 725 L 1144 725.046875 C 1144 725.441406 1143.753906 725.789062 1143.386719 725.921875 C 1143.152344 726 1142.929688 726 1142.488281 726 L 789.171875 726 C 781.070312 726 780.847656 726 780.613281 725.921875 C 780.246094 725.789062 780 725.441406 780 725.046875 C 780 725 780 725 780 725 L 780 724.949219 C 780 724.558594 780.246094 724.207031 780.613281 724.074219 C 780.847656 724 781.070312 724 781.511719 724 L 789.171875 724 "/>
<path style=" stroke:none;fill-rule:nonzero;fill:rgb(66.665649%,66.665649%,66.665649%);fill-opacity:1;" d="M 1145 724 L 1145.050781 724 C 1145.441406 724 1145.792969 724.242188 1145.925781 724.609375 C 1146 724.847656 1146 725.066406 1146 725.507812 L 1146 1012.726562 C 1146 1020.828125 1146 1021.046875 1145.925781 1021.285156 C 1145.792969 1021.652344 1145.441406 1021.898438 1145.050781 1021.898438 C 1145 1021.898438 1145 1021.898438 1145 1021.898438 L 1144.949219 1021.898438 C 1144.558594 1021.898438 1144.207031 1021.652344 1144.074219 1021.285156 C 1144 1021.046875 1144 1020.828125 1144 1020.386719 L 1144 733.171875 C 1144 725.066406 1144 724.847656 1144.074219 724.609375 C 1144.207031 724.242188 1144.558594 724 1144.949219 724 C 1145 724 1145 724 1145 724 "/>
<path style=" stroke:none;fill-rule:nonzero;fill:rgb(66.665649%,66.665649%,66.665649%);fill-opacity:1;" d="M 789.171875 1019.898438 L 1134.828125 1019.898438 C 1142.929688 1019.898438 1143.152344 1019.898438 1143.386719 1019.972656 C 1143.753906 1020.105469 1144 1020.457031 1144 1020.847656 C 1144 1020.898438 1144 1020.898438 1144 1020.898438 L 1144 1020.945312 C 1144 1021.339844 1143.753906 1021.6875 1143.386719 1021.820312 C 1143.152344 1021.898438 1142.929688 1021.898438 1142.488281 1021.898438 L 789.171875 1021.898438 C 781.070312 1021.898438 780.847656 1021.898438 780.613281 1021.820312 C 780.246094 1021.6875 780 1021.339844 780 1020.945312 C 780 1020.898438 780 1020.898438 780 1020.898438 L 780 1020.847656 C 780 1020.457031 780.246094 1020.105469 780.613281 1019.972656 C 780.847656 1019.898438 781.070312 1019.898438 781.511719 1019.898438 L 789.171875 1019.898438 "/>
<path style=" stroke:none;fill-rule:nonzero;fill:rgb(66.665649%,66.665649%,66.665649%);fill-opacity:1;" d="M 47 1019.898438 L 47.050781 1019.898438 C 47.441406 1019.898438 47.792969 1020.140625 47.925781 1020.511719 C 48 1020.746094 48 1020.96875 48 1021.40625 L 48 1101.554688 C 48 1109.65625 48 1109.875 47.925781 1110.113281 C 47.792969 1110.480469 47.441406 1110.726562 47.050781 1110.726562 C 47 1110.726562 47 1110.726562 47 1110.726562 L 46.949219 1110.726562 C 46.558594 1110.726562 46.207031 1110.480469 46.074219 1110.113281 C 46 1109.875 46 1109.65625 46 1109.214844 L 46 1029.070312 C 46 1020.96875 46 1020.746094 46.074219 1020.511719 C 46.207031 1020.140625 46.558594 1019.898438 46.949219 1019.898438 C 47 1019.898438 47 1019.898438 47 1019.898438 "/>
<path style=" stroke:none;fill-rule:nonzero;fill:rgb(66.665649%,66.665649%,66.665649%);fill-opacity:1;" d="M 57.171875 1019.898438 L 402.828125 1019.898438 C 410.929688 1019.898438 411.152344 1019.898438 411.386719 1019.972656 C 411.753906 1020.105469 412 1020.457031 412 1020.847656 C 412 1020.898438 412 1020.898438 412 1020.898438 L 412 1020.945312 C 412 1021.339844 411.753906 1021.6875 411.386719 1021.820312 C 411.152344 1021.898438 410.929688 1021.898438 410.488281 1021.898438 L 57.171875 1021.898438 C 49.070312 1021.898438 48.851562 1021.898438 48.613281 1021.820312 C 48.246094 1021.6875 48 1021.339844 48 1020.945312 C 48 1020.898438 48 1020.898438 48 1020.898438 L 48 1020.847656 C 48 1020.457031 48.246094 1020.105469 48.613281 1019.972656 C 48.851562 1019.898438 49.070312 1019.898438 49.511719 1019.898438 L 57.171875 1019.898438 "/>
<path style=" stroke:none;fill-rule:nonzero;fill:rgb(66.665649%,66.665649%,66.665649%);fill-opacity:1;" d="M 413 1019.898438 L 413.050781 1019.898438 C 413.441406 1019.898438 413.792969 1020.140625 413.925781 1020.511719 C 414 1020.746094 414 1020.96875 414 1021.40625 L 414 1101.554688 C 414 1109.65625 414 1109.875 413.925781 1110.113281 C 413.792969 1110.480469 413.441406 1110.726562 413.050781 1110.726562 C 413 1110.726562 413 1110.726562 413 1110.726562 L 412.949219 1110.726562 C 412.558594 1110.726562 412.207031 1110.480469 412.074219 1110.113281 C 412 1109.875 412 1109.65625 412 1109.214844 L 412 1029.070312 C 412 1020.96875 412 1020.746094 412.074219 1020.511719 C 412.207031 1020.140625 412.558594 1019.898438 412.949219 1019.898438 C 413 1019.898438 413 1019.898438 413 1019.898438 "/>
<path style=" stroke:none;fill-rule:nonzero;fill:rgb(66.665649%,66.665649%,66.665649%);fill-opacity:1;" d="M 57.171875 1108.726562 L 402.828125 1108.726562 C 410.929688 1108.726562 411.152344 1108.726562 411.386719 1108.800781 C 411.753906 1108.933594 412 1109.285156 412 1109.675781 C 412 1109.726562 412 1109.726562 412 1109.726562 L 412 1109.773438 C 412 1110.167969 411.753906 1110.515625 411.386719 1110.648438 C 411.152344 1110.726562 410.929688 1110.726562 410.488281 1110.726562 L 57.171875 1110.726562 C 49.070312 1110.726562 48.851562 1110.726562 48.613281 1110.648438 C 48.246094 1110.515625 48 1110.167969 48 1109.773438 C 48 1109.726562 48 1109.726562 48 1109.726562 L 48 1109.675781 C 48 1109.285156 48.246094 1108.933594 48.613281 1108.800781 C 48.851562 1108.726562 49.070312 1108.726562 49.511719 1108.726562 L 57.171875 1108.726562 "/>
<path style=" stroke:none;fill-rule:nonzero;fill:rgb(66.665649%,66.665649%,66.665649%);fill-opacity:1;" d="M 413 1019.898438 L 413.050781 1019.898438 C 413.441406 1019.898438 413.792969 1020.140625 413.925781 1020.511719 C 414 1020.746094 414 1020.96875 414 1021.40625 L 414 1101.554688 C 414 1109.65625 414 1109.875 413.925781 1110.113281 C 413.792969 1110.480469 413.441406 1110.726562 413.050781 1110.726562 C 413 1110.726562 413 1110.726562 413 1110.726562 L 412.949219 1110.726562 C 412.558594 1110.726562 412.207031 1110.480469 412.074219 1110.113281 C 412 1109.875 412 1109.65625 412 1109.214844 L 412 1029.070312 C 412 1020.96875 412 1020.746094 412.074219 1020.511719 C 412.207031 1020.140625 412.558594 1019.898438 412.949219 1019.898438 C 413 1019.898438 413 1019.898438 413 1019.898438 "/>
<path style=" stroke:none;fill-rule:nonzero;fill:rgb(66.665649%,66.665649%,66.665649%);fill-opacity:1;" d="M 423.171875 1019.898438 L 768.828125 1019.898438 C 776.929688 1019.898438 777.152344 1019.898438 777.386719 1019.972656 C 777.753906 1020.105469 778 1020.457031 778 1020.847656 C 778 1020.898438 778 1020.898438 778 1020.898438 L 778 1020.945312 C 778 1021.339844 777.753906 1021.6875 777.386719 1021.820312 C 777.152344 1021.898438 776.929688 1021.898438 776.488281 1021.898438 L 423.171875 1021.898438 C 415.070312 1021.898438 414.847656 1021.898438 414.613281 1021.820312 C 414.246094 1021.6875 414 1021.339844 414 1020.945312 C 414 1020.898438 414 1020.898438 414 1020.898438 L 414 1020.847656 C 414 1020.457031 414.246094 1020.105469 414.613281 1019.972656 C 414.847656 1019.898438 415.070312 1019.898438 415.511719 1019.898438 L 423.171875 1019.898438 "/>
<path style=" stroke:none;fill-rule:nonzero;fill:rgb(66.665649%,66.665649%,66.665649%);fill-opacity:1;" d="M 779 1019.898438 L 779.050781 1019.898438 C 779.441406 1019.898438 779.792969 1020.140625 779.925781 1020.511719 C 780 1020.746094 780 1020.96875 780 1021.40625 L 780 1101.554688 C 780 1109.65625 780 1109.875 779.925781 1110.113281 C 779.792969 1110.480469 779.441406 1110.726562 779.050781 1110.726562 C 779 1110.726562 779 1110.726562 779 1110.726562 L 778.949219 1110.726562 C 778.558594 1110.726562 778.207031 1110.480469 778.074219 1110.113281 C 778 1109.875 778 1109.65625 778 1109.214844 L 778 1029.070312 C 778 1020.96875 778 1020.746094 778.074219 1020.511719 C 778.207031 1020.140625 778.558594 1019.898438 778.949219 1019.898438 C 779 1019.898438 779 1019.898438 779 1019.898438 "/>
<path style=" stroke:none;fill-rule:nonzero;fill:rgb(66.665649%,66.665649%,66.665649%);fill-opacity:1;" d="M 423.171875 1108.726562 L 768.828125 1108.726562 C 776.929688 1108.726562 777.152344 1108.726562 777.386719 1108.800781 C 777.753906 1108.933594 778 1109.285156 778 1109.675781 C 778 1109.726562 778 1109.726562 778 1109.726562 L 778 1109.773438 C 778 1110.167969 777.753906 1110.515625 777.386719 1110.648438 C 777.152344 1110.726562 776.929688 1110.726562 776.488281 1110.726562 L 423.171875 1110.726562 C 415.070312 1110.726562 414.847656 1110.726562 414.613281 1110.648438 C 414.246094 1110.515625 414 1110.167969 414 1109.773438 C 414 1109.726562 414 1109.726562 414 1109.726562 L 414 1109.675781 C 414 1109.285156 414.246094 1108.933594 414.613281 1108.800781 C 414.847656 1108.726562 415.070312 1108.726562 415.511719 1108.726562 L 423.171875 1108.726562 "/>
<path style=" stroke:none;fill-rule:nonzero;fill:rgb(66.665649%,66.665649%,66.665649%);fill-opacity:1;" d="M 779 1019.898438 L 779.050781 1019.898438 C 779.441406 1019.898438 779.792969 1020.140625 779.925781 1020.511719 C 780 1020.746094 780 1020.96875 780 1021.40625 L 780 1101.554688 C 780 1109.65625 780 1109.875 779.925781 1110.113281 C 779.792969 1110.480469 779.441406 1110.726562 779.050781 1110.726562 C 779 1110.726562 779 1110.726562 779 1110.726562 L 778.949219 1110.726562 C 778.558594 1110.726562 778.207031 1110.480469 778.074219 1110.113281 C 778 1109.875 778 1109.65625 778 1109.214844 L 778 1029.070312 C 778 1020.96875 778 1020.746094 778.074219 1020.511719 C 778.207031 1020.140625 778.558594 1019.898438 778.949219 1019.898438 C 779 1019.898438 779 1019.898438 779 1019.898438 "/>
<path style=" stroke:none;fill-rule:nonzero;fill:rgb(66.665649%,66.665649%,66.665649%);fill-opacity:1;" d="M 789.171875 1019.898438 L 1134.828125 1019.898438 C 1142.929688 1019.898438 1143.152344 1019.898438 1143.386719 1019.972656 C 1143.753906 1020.105469 1144 1020.457031 1144 1020.847656 C 1144 1020.898438 1144 1020.898438 1144 1020.898438 L 1144 1020.945312 C 1144 1021.339844 1143.753906 1021.6875 1143.386719 1021.820312 C 1143.152344 1021.898438 1142.929688 1021.898438 1142.488281 1021.898438 L 789.171875 1021.898438 C 781.070312 1021.898438 780.847656 1021.898438 780.613281 1021.820312 C 780.246094 1021.6875 780 1021.339844 780 1020.945312 C 780 1020.898438 780 1020.898438 780 1020.898438 L 780 1020.847656 C 780 1020.457031 780.246094 1020.105469 780.613281 1019.972656 C 780.847656 1019.898438 781.070312 1019.898438 781.511719 1019.898438 L 789.171875 1019.898438 "/>
<path style=" stroke:none;fill-rule:nonzero;fill:rgb(66.665649%,66.665649%,66.665649%);fill-opacity:1;" d="M 1145 1019.898438 L 1145.050781 1019.898438 C 1145.441406 1019.898438 1145.792969 1020.140625 1145.925781 1020.511719 C 1146 1020.746094 1146 1020.96875 1146 1021.40625 L 1146 1101.554688 C 1146 1109.65625 1146 1109.875 1145.925781 1110.113281 C 1145.792969 1110.480469 1145.441406 1110.726562 1145.050781 1110.726562 C 1145 1110.726562 1145 1110.726562 1145 1110.726562 L 1144.949219 1110.726562 C 1144.558594 1110.726562 1144.207031 1110.480469 1144.074219 1110.113281 C 1144 1109.875 1144 1109.65625 1144 1109.214844 L 1144 1029.070312 C 1144 1020.96875 1144 1020.746094 1144.074219 1020.511719 C 1144.207031 1020.140625 1144.558594 1019.898438 1144.949219 1019.898438 C 1145 1019.898438 1145 1019.898438 1145 1019.898438 "/>
<path style=" stroke:none;fill-rule:nonzero;fill:rgb(66.665649%,66.665649%,66.665649%);fill-opacity:1;" d="M 789.171875 1108.726562 L 1134.828125 1108.726562 C 1142.929688 1108.726562 1143.152344 1108.726562 1143.386719 1108.800781 C 1143.753906 1108.933594 1144 1109.285156 1144 1109.675781 C 1144 1109.726562 1144 1109.726562 1144 1109.726562 L 1144 1109.773438 C 1144 1110.167969 1143.753906 1110.515625 1143.386719 1110.648438 C 1143.152344 1110.726562 1142.929688 1110.726562 1142.488281 1110.726562 L 789.171875 1110.726562 C 781.070312 1110.726562 780.847656 1110.726562 780.613281 1110.648438 C 780.246094 1110.515625 780 1110.167969 780 1109.773438 C 780 1109.726562 780 1109.726562 780 1109.726562 L 780 1109.675781 C 780 1109.285156 780.246094 1108.933594 780.613281 1108.800781 C 780.847656 1108.726562 781.070312 1108.726562 781.511719 1108.726562 L 789.171875 1108.726562 "/>
<path style=" stroke:none;fill-rule:nonzero;fill:rgb(66.665649%,66.665649%,66.665649%);fill-opacity:1;" d="M 47 1108.726562 L 47.050781 1108.726562 C 47.441406 1108.726562 47.792969 1108.96875 47.925781 1109.335938 C 48 1109.574219 48 1109.792969 48 1110.234375 L 48 1438.867188 C 48 1446.96875 48 1447.1875 47.925781 1447.425781 C 47.792969 1447.792969 47.441406 1448.039062 47.050781 1448.039062 C 47 1448.039062 47 1448.039062 47 1448.039062 L 46.949219 1448.039062 C 46.558594 1448.039062 46.207031 1447.792969 46.074219 1447.425781 C 46 1447.1875 46 1446.96875 46 1446.527344 L 46 1117.898438 C 46 1109.792969 46 1109.574219 46.074219 1109.335938 C 46.207031 1108.96875 46.558594 1108.726562 46.949219 1108.726562 C 47 1108.726562 47 1108.726562 47 1108.726562 "/>
<path style=" stroke:none;fill-rule:nonzero;fill:rgb(66.665649%,66.665649%,66.665649%);fill-opacity:1;" d="M 57.171875 1108.726562 L 402.828125 1108.726562 C 410.929688 1108.726562 411.152344 1108.726562 411.386719 1108.800781 C 411.753906 1108.933594 412 1109.285156 412 1109.675781 C 412 1109.726562 412 1109.726562 412 1109.726562 L 412 1109.773438 C 412 1110.167969 411.753906 1110.515625 411.386719 1110.648438 C 411.152344 1110.726562 410.929688 1110.726562 410.488281 1110.726562 L 57.171875 1110.726562 C 49.070312 1110.726562 48.851562 1110.726562 48.613281 1110.648438 C 48.246094 1110.515625 48 1110.167969 48 1109.773438 C 48 1109.726562 48 1109.726562 48 1109.726562 L 48 1109.675781 C 48 1109.285156 48.246094 1108.933594 48.613281 1108.800781 C 48.851562 1108.726562 49.070312 1108.726562 49.511719 1108.726562 L 57.171875 1108.726562 "/>
<path style=" stroke:none;fill-rule:nonzero;fill:rgb(66.665649%,66.665649%,66.665649%);fill-opacity:1;" d="M 413 1108.726562 L 413.050781 1108.726562 C 413.441406 1108.726562 413.792969 1108.96875 413.925781 1109.335938 C 414 1109.574219 414 1109.792969 414 1110.234375 L 414 1438.867188 C 414 1446.96875 414 1447.1875 413.925781 1447.425781 C 413.792969 1447.792969 413.441406 1448.039062 413.050781 1448.039062 C 413 1448.039062 413 1448.039062 413 1448.039062 L 412.949219 1448.039062 C 412.558594 1448.039062 412.207031 1447.792969 412.074219 1447.425781 C 412 1447.1875 412 1446.96875 412 1446.527344 L 412 1117.898438 C 412 1109.792969 412 1109.574219 412.074219 1109.335938 C 412.207031 1108.96875 412.558594 1108.726562 412.949219 1108.726562 C 413 1108.726562 413 1108.726562 413 1108.726562 "/>
<path style=" stroke:none;fill-rule:nonzero;fill:rgb(66.665649%,66.665649%,66.665649%);fill-opacity:1;" d="M 57.171875 1446.039062 L 402.828125 1446.039062 C 410.929688 1446.039062 411.152344 1446.039062 411.386719 1446.113281 C 411.753906 1446.246094 412 1446.597656 412 1446.988281 C 412 1447.039062 412 1447.039062 412 1447.039062 L 412 1447.085938 C 412 1447.480469 411.753906 1447.828125 411.386719 1447.960938 C 411.152344 1448.039062 410.929688 1448.039062 410.488281 1448.039062 L 57.171875 1448.039062 C 49.070312 1448.039062 48.851562 1448.039062 48.613281 1447.960938 C 48.246094 1447.828125 48 1447.480469 48 1447.085938 C 48 1447.039062 48 1447.039062 48 1447.039062 L 48 1446.988281 C 48 1446.597656 48.246094 1446.246094 48.613281 1446.113281 C 48.851562 1446.039062 49.070312 1446.039062 49.511719 1446.039062 L 57.171875 1446.039062 "/>
<path style=" stroke:none;fill-rule:nonzero;fill:rgb(66.665649%,66.665649%,66.665649%);fill-opacity:1;" d="M 413 1108.726562 L 413.050781 1108.726562 C 413.441406 1108.726562 413.792969 1108.96875 413.925781 1109.335938 C 414 1109.574219 414 1109.792969 414 1110.234375 L 414 1438.867188 C 414 1446.96875 414 1447.1875 413.925781 1447.425781 C 413.792969 1447.792969 413.441406 1448.039062 413.050781 1448.039062 C 413 1448.039062 413 1448.039062 413 1448.039062 L 412.949219 1448.039062 C 412.558594 1448.039062 412.207031 1447.792969 412.074219 1447.425781 C 412 1447.1875 412 1446.96875 412 1446.527344 L 412 1117.898438 C 412 1109.792969 412 1109.574219 412.074219 1109.335938 C 412.207031 1108.96875 412.558594 1108.726562 412.949219 1108.726562 C 413 1108.726562 413 1108.726562 413 1108.726562 "/>
<path style=" stroke:none;fill-rule:nonzero;fill:rgb(66.665649%,66.665649%,66.665649%);fill-opacity:1;" d="M 423.171875 1108.726562 L 768.828125 1108.726562 C 776.929688 1108.726562 777.152344 1108.726562 777.386719 1108.800781 C 777.753906 1108.933594 778 1109.285156 778 1109.675781 C 778 1109.726562 778 1109.726562 778 1109.726562 L 778 1109.773438 C 778 1110.167969 777.753906 1110.515625 777.386719 1110.648438 C 777.152344 1110.726562 776.929688 1110.726562 776.488281 1110.726562 L 423.171875 1110.726562 C 415.070312 1110.726562 414.847656 1110.726562 414.613281 1110.648438 C 414.246094 1110.515625 414 1110.167969 414 1109.773438 C 414 1109.726562 414 1109.726562 414 1109.726562 L 414 1109.675781 C 414 1109.285156 414.246094 1108.933594 414.613281 1108.800781 C 414.847656 1108.726562 415.070312 1108.726562 415.511719 1108.726562 L 423.171875 1108.726562 "/>
<path style=" stroke:none;fill-rule:nonzero;fill:rgb(66.665649%,66.665649%,66.665649%);fill-opacity:1;" d="M 779 1108.726562 L 779.050781 1108.726562 C 779.441406 1108.726562 779.792969 1108.96875 779.925781 1109.335938 C 780 1109.574219 780 1109.792969 780 1110.234375 L 780 1438.867188 C 780 1446.96875 780 1447.1875 779.925781 1447.425781 C 779.792969 1447.792969 779.441406 1448.039062 779.050781 1448.039062 C 779 1448.039062 779 1448.039062 779 1448.039062 L 778.949219 1448.039062 C 778.558594 1448.039062 778.207031 1447.792969 778.074219 1447.425781 C 778 1447.1875 778 1446.96875 778 1446.527344 L 778 1117.898438 C 778 1109.792969 778 1109.574219 778.074219 1109.335938 C 778.207031 1108.96875 778.558594 1108.726562 778.949219 1108.726562 C 779 1108.726562 779 1108.726562 779 1108.726562 "/>
<path style=" stroke:none;fill-rule:nonzero;fill:rgb(66.665649%,66.665649%,66.665649%);fill-opacity:1;" d="M 423.171875 1446.039062 L 768.828125 1446.039062 C 776.929688 1446.039062 777.152344 1446.039062 777.386719 1446.113281 C 777.753906 1446.246094 778 1446.597656 778 1446.988281 C 778 1447.039062 778 1447.039062 778 1447.039062 L 778 1447.085938 C 778 1447.480469 777.753906 1447.828125 777.386719 1447.960938 C 777.152344 1448.039062 776.929688 1448.039062 776.488281 1448.039062 L 423.171875 1448.039062 C 415.070312 1448.039062 414.847656 1448.039062 414.613281 1447.960938 C 414.246094 1447.828125 414 1447.480469 414 1447.085938 C 414 1447.039062 414 1447.039062 414 1447.039062 L 414 1446.988281 C 414 1446.597656 414.246094 1446.246094 414.613281 1446.113281 C 414.847656 1446.039062 415.070312 1446.039062 415.511719 1446.039062 L 423.171875 1446.039062 "/>
<path style=" stroke:none;fill-rule:nonzero;fill:rgb(66.665649%,66.665649%,66.665649%);fill-opacity:1;" d="M 779 1108.726562 L 779.050781 1108.726562 C 779.441406 1108.726562 779.792969 1108.96875 779.925781 1109.335938 C 780 1109.574219 780 1109.792969 780 1110.234375 L 780 1438.867188 C 780 1446.96875 780 1447.1875 779.925781 1447.425781 C 779.792969 1447.792969 779.441406 1448.039062 779.050781 1448.039062 C 779 1448.039062 779 1448.039062 779 1448.039062 L 778.949219 1448.039062 C 778.558594 1448.039062 778.207031 1447.792969 778.074219 1447.425781 C 778 1447.1875 778 1446.96875 778 1446.527344 L 778 1117.898438 C 778 1109.792969 778 1109.574219 778.074219 1109.335938 C 778.207031 1108.96875 778.558594 1108.726562 778.949219 1108.726562 C 779 1108.726562 779 1108.726562 779 1108.726562 "/>
<path style=" stroke:none;fill-rule:nonzero;fill:rgb(66.665649%,66.665649%,66.665649%);fill-opacity:1;" d="M 789.171875 1108.726562 L 1134.828125 1108.726562 C 1142.929688 1108.726562 1143.152344 1108.726562 1143.386719 1108.800781 C 1143.753906 1108.933594 1144 1109.285156 1144 1109.675781 C 1144 1109.726562 1144 1109.726562 1144 1109.726562 L 1144 1109.773438 C 1144 1110.167969 1143.753906 1110.515625 1143.386719 1110.648438 C 1143.152344 1110.726562 1142.929688 1110.726562 1142.488281 1110.726562 L 789.171875 1110.726562 C 781.070312 1110.726562 780.847656 1110.726562 780.613281 1110.648438 C 780.246094 1110.515625 780 1110.167969 780 1109.773438 C 780 1109.726562 780 1109.726562 780 1109.726562 L 780 1109.675781 C 780 1109.285156 780.246094 1108.933594 780.613281 1108.800781 C 780.847656 1108.726562 781.070312 1108.726562 781.511719 1108.726562 L 789.171875 1108.726562 "/>
<path style=" stroke:none;fill-rule:nonzero;fill:rgb(66.665649%,66.665649%,66.665649%);fill-opacity:1;" d="M 1145 1108.726562 L 1145.050781 1108.726562 C 1145.441406 1108.726562 1145.792969 1108.96875 1145.925781 1109.335938 C 1146 1109.574219 1146 1109.792969 1146 1110.234375 L 1146 1438.867188 C 1146 1446.96875 1146 1447.1875 1145.925781 1447.425781 C 1145.792969 1447.792969 1145.441406 1448.039062 1145.050781 1448.039062 C 1145 1448.039062 1145 1448.039062 1145 1448.039062 L 1144.949219 1448.039062 C 1144.558594 1448.039062 1144.207031 1447.792969 1144.074219 1447.425781 C 1144 1447.1875 1144 1446.96875 1144 1446.527344 L 1144 1117.898438 C 1144 1109.792969 1144 1109.574219 1144.074219 1109.335938 C 1144.207031 1108.96875 1144.558594 1108.726562 1144.949219 1108.726562 C 1145 1108.726562 1145 1108.726562 1145 1108.726562 "/>
<path style=" stroke:none;fill-rule:nonzero;fill:rgb(66.665649%,66.665649%,66.665649%);fill-opacity:1;" d="M 789.171875 1446.039062 L 1134.828125 1446.039062 C 1142.929688 1446.039062 1143.152344 1446.039062 1143.386719 1446.113281 C 1143.753906 1446.246094 1144 1446.597656 1144 1446.988281 C 1144 1447.039062 1144 1447.039062 1144 1447.039062 L 1144 1447.085938 C 1144 1447.480469 1143.753906 1447.828125 1143.386719 1447.960938 C 1143.152344 1448.039062 1142.929688 1448.039062 1142.488281 1448.039062 L 789.171875 1448.039062 C 781.070312 1448.039062 780.847656 1448.039062 780.613281 1447.960938 C 780.246094 1447.828125 780 1447.480469 780 1447.085938 C 780 1447.039062 780 1447.039062 780 1447.039062 L 780 1446.988281 C 780 1446.597656 780.246094 1446.246094 780.613281 1446.113281 C 780.847656 1446.039062 781.070312 1446.039062 781.511719 1446.039062 L 789.171875 1446.039062 "/>
<path style=" stroke:none;fill-rule:nonzero;fill:rgb(66.665649%,66.665649%,66.665649%);fill-opacity:1;" d="M 47 1446.039062 L 47.050781 1446.039062 C 47.441406 1446.039062 47.792969 1446.28125 47.925781 1446.652344 C 48 1446.886719 48 1447.105469 48 1447.546875 L 48 1527.695312 C 48 1535.796875 48 1536.015625 47.925781 1536.253906 C 47.792969 1536.621094 47.441406 1536.867188 47.050781 1536.867188 C 47 1536.867188 47 1536.867188 47 1536.867188 L 46.949219 1536.867188 C 46.558594 1536.867188 46.207031 1536.621094 46.074219 1536.253906 C 46 1536.015625 46 1535.796875 46 1535.355469 L 46 1455.210938 C 46 1447.105469 46 1446.886719 46.074219 1446.652344 C 46.207031 1446.28125 46.558594 1446.039062 46.949219 1446.039062 C 47 1446.039062 47 1446.039062 47 1446.039062 "/>
<path style=" stroke:none;fill-rule:nonzero;fill:rgb(66.665649%,66.665649%,66.665649%);fill-opacity:1;" d="M 57.171875 1446.039062 L 402.828125 1446.039062 C 410.929688 1446.039062 411.152344 1446.039062 411.386719 1446.113281 C 411.753906 1446.246094 412 1446.597656 412 1446.988281 C 412 1447.039062 412 1447.039062 412 1447.039062 L 412 1447.085938 C 412 1447.480469 411.753906 1447.828125 411.386719 1447.960938 C 411.152344 1448.039062 410.929688 1448.039062 410.488281 1448.039062 L 57.171875 1448.039062 C 49.070312 1448.039062 48.851562 1448.039062 48.613281 1447.960938 C 48.246094 1447.828125 48 1447.480469 48 1447.085938 C 48 1447.039062 48 1447.039062 48 1447.039062 L 48 1446.988281 C 48 1446.597656 48.246094 1446.246094 48.613281 1446.113281 C 48.851562 1446.039062 49.070312 1446.039062 49.511719 1446.039062 L 57.171875 1446.039062 "/>
<path style=" stroke:none;fill-rule:nonzero;fill:rgb(66.665649%,66.665649%,66.665649%);fill-opacity:1;" d="M 413 1446.039062 L 413.050781 1446.039062 C 413.441406 1446.039062 413.792969 1446.28125 413.925781 1446.652344 C 414 1446.886719 414 1447.105469 414 1447.546875 L 414 1527.695312 C 414 1535.796875 414 1536.015625 413.925781 1536.253906 C 413.792969 1536.621094 413.441406 1536.867188 413.050781 1536.867188 C 413 1536.867188 413 1536.867188 413 1536.867188 L 412.949219 1536.867188 C 412.558594 1536.867188 412.207031 1536.621094 412.074219 1536.253906 C 412 1536.015625 412 1535.796875 412 1535.355469 L 412 1455.210938 C 412 1447.105469 412 1446.886719 412.074219 1446.652344 C 412.207031 1446.28125 412.558594 1446.039062 412.949219 1446.039062 C 413 1446.039062 413 1446.039062 413 1446.039062 "/>
<path style=" stroke:none;fill-rule:nonzero;fill:rgb(66.665649%,66.665649%,66.665649%);fill-opacity:1;" d="M 57.171875 1534.867188 L 402.828125 1534.867188 C 410.929688 1534.867188 411.152344 1534.867188 411.386719 1534.941406 C 411.753906 1535.074219 412 1535.425781 412 1535.816406 C 412 1535.867188 412 1535.867188 412 1535.867188 L 412 1535.914062 C 412 1536.308594 411.753906 1536.65625 411.386719 1536.789062 C 411.152344 1536.867188 410.929688 1536.867188 410.488281 1536.867188 L 57.171875 1536.867188 C 49.070312 1536.867188 48.851562 1536.867188 48.613281 1536.789062 C 48.246094 1536.65625 48 1536.308594 48 1535.914062 C 48 1535.867188 48 1535.867188 48 1535.867188 L 48 1535.816406 C 48 1535.425781 48.246094 1535.074219 48.613281 1534.941406 C 48.851562 1534.867188 49.070312 1534.867188 49.511719 1534.867188 L 57.171875 1534.867188 "/>
<path style=" stroke:none;fill-rule:nonzero;fill:rgb(66.665649%,66.665649%,66.665649%);fill-opacity:1;" d="M 413 1446.039062 L 413.050781 1446.039062 C 413.441406 1446.039062 413.792969 1446.28125 413.925781 1446.652344 C 414 1446.886719 414 1447.105469 414 1447.546875 L 414 1527.695312 C 414 1535.796875 414 1536.015625 413.925781 1536.253906 C 413.792969 1536.621094 413.441406 1536.867188 413.050781 1536.867188 C 413 1536.867188 413 1536.867188 413 1536.867188 L 412.949219 1536.867188 C 412.558594 1536.867188 412.207031 1536.621094 412.074219 1536.253906 C 412 1536.015625 412 1535.796875 412 1535.355469 L 412 1455.210938 C 412 1447.105469 412 1446.886719 412.074219 1446.652344 C 412.207031 1446.28125 412.558594 1446.039062 412.949219 1446.039062 C 413 1446.039062 413 1446.039062 413 1446.039062 "/>
<path style=" stroke:none;fill-rule:nonzero;fill:rgb(66.665649%,66.665649%,66.665649%);fill-opacity:1;" d="M 423.171875 1446.039062 L 768.828125 1446.039062 C 776.929688 1446.039062 777.152344 1446.039062 777.386719 1446.113281 C 777.753906 1446.246094 778 1446.597656 778 1446.988281 C 778 1447.039062 778 1447.039062 778 1447.039062 L 778 1447.085938 C 778 1447.480469 777.753906 1447.828125 777.386719 1447.960938 C 777.152344 1448.039062 776.929688 1448.039062 776.488281 1448.039062 L 423.171875 1448.039062 C 415.070312 1448.039062 414.847656 1448.039062 414.613281 1447.960938 C 414.246094 1447.828125 414 1447.480469 414 1447.085938 C 414 1447.039062 414 1447.039062 414 1447.039062 L 414 1446.988281 C 414 1446.597656 414.246094 1446.246094 414.613281 1446.113281 C 414.847656 1446.039062 415.070312 1446.039062 415.511719 1446.039062 L 423.171875 1446.039062 "/>
<path style=" stroke:none;fill-rule:nonzero;fill:rgb(66.665649%,66.665649%,66.665649%);fill-opacity:1;" d="M 779 1446.039062 L 779.050781 1446.039062 C 779.441406 1446.039062 779.792969 1446.28125 779.925781 1446.652344 C 780 1446.886719 780 1447.105469 780 1447.546875 L 780 1527.695312 C 780 1535.796875 780 1536.015625 779.925781 1536.253906 C 779.792969 1536.621094 779.441406 1536.867188 779.050781 1536.867188 C 779 1536.867188 779 1536.867188 779 1536.867188 L 778.949219 1536.867188 C 778.558594 1536.867188 778.207031 1536.621094 778.074219 1536.253906 C 778 1536.015625 778 1535.796875 778 1535.355469 L 778 1455.210938 C 778 1447.105469 778 1446.886719 778.074219 1446.652344 C 778.207031 1446.28125 778.558594 1446.039062 778.949219 1446.039062 C 779 1446.039062 779 1446.039062 779 1446.039062 "/>
<path style=" stroke:none;fill-rule:nonzero;fill:rgb(66.665649%,66.665649%,66.665649%);fill-opacity:1;" d="M 423.171875 1534.867188 L 768.828125 1534.867188 C 776.929688 1534.867188 777.152344 1534.867188 777.386719 1534.941406 C 777.753906 1535.074219 778 1535.425781 778 1535.816406 C 778 1535.867188 778 1535.867188 778 1535.867188 L 778 1535.914062 C 778 1536.308594 777.753906 1536.65625 777.386719 1536.789062 C 777.152344 1536.867188 776.929688 1536.867188 776.488281 1536.867188 L 423.171875 1536.867188 C 415.070312 1536.867188 414.847656 1536.867188 414.613281 1536.789062 C 414.246094 1536.65625 414 1536.308594 414 1535.914062 C 414 1535.867188 414 1535.867188 414 1535.867188 L 414 1535.816406 C 414 1535.425781 414.246094 1535.074219 414.613281 1534.941406 C 414.847656 1534.867188 415.070312 1534.867188 415.511719 1534.867188 L 423.171875 1534.867188 "/>
<path style=" stroke:none;fill-rule:nonzero;fill:rgb(66.665649%,66.665649%,66.665649%);fill-opacity:1;" d="M 779 1446.039062 L 779.050781 1446.039062 C 779.441406 1446.039062 779.792969 1446.28125 779.925781 1446.652344 C 780 1446.886719 780 1447.105469 780 1447.546875 L 780 1527.695312 C 780 1535.796875 780 1536.015625 779.925781 1536.253906 C 779.792969 1536.621094 779.441406 1536.867188 779.050781 1536.867188 C 779 1536.867188 779 1536.867188 779 1536.867188 L 778.949219 1536.867188 C 778.558594 1536.867188 778.207031 1536.621094 778.074219 1536.253906 C 778 1536.015625 778 1535.796875 778 1535.355469 L 778 1455.210938 C 778 1447.105469 778 1446.886719 778.074219 1446.652344 C 778.207031 1446.28125 778.558594 1446.039062 778.949219 1446.039062 C 779 1446.039062 779 1446.039062 779 1446.039062 "/>
<path style=" stroke:none;fill-rule:nonzero;fill:rgb(66.665649%,66.665649%,66.665649%);fill-opacity:1;" d="M 789.171875 1446.039062 L 1134.828125 1446.039062 C 1142.929688 1446.039062 1143.152344 1446.039062 1143.386719 1446.113281 C 1143.753906 1446.246094 1144 1446.597656 1144 1446.988281 C 1144 1447.039062 1144 1447.039062 1144 1447.039062 L 1144 1447.085938 C 1144 1447.480469 1143.753906 1447.828125 1143.386719 1447.960938 C 1143.152344 1448.039062 1142.929688 1448.039062 1142.488281 1448.039062 L 789.171875 1448.039062 C 781.070312 1448.039062 780.847656 1448.039062 780.613281 1447.960938 C 780.246094 1447.828125 780 1447.480469 780 1447.085938 C 780 1447.039062 780 1447.039062 780 1447.039062 L 780 1446.988281 C 780 1446.597656 780.246094 1446.246094 780.613281 1446.113281 C 780.847656 1446.039062 781.070312 1446.039062 781.511719 1446.039062 L 789.171875 1446.039062 "/>
<path style=" stroke:none;fill-rule:nonzero;fill:rgb(66.665649%,66.665649%,66.665649%);fill-opacity:1;" d="M 1145 1446.039062 L 1145.050781 1446.039062 C 1145.441406 1446.039062 1145.792969 1446.28125 1145.925781 1446.652344 C 1146 1446.886719 1146 1447.105469 1146 1447.546875 L 1146 1527.695312 C 1146 1535.796875 1146 1536.015625 1145.925781 1536.253906 C 1145.792969 1536.621094 1145.441406 1536.867188 1145.050781 1536.867188 C 1145 1536.867188 1145 1536.867188 1145 1536.867188 L 1144.949219 1536.867188 C 1144.558594 1536.867188 1144.207031 1536.621094 1144.074219 1536.253906 C 1144 1536.015625 1144 1535.796875 1144 1535.355469 L 1144 1455.210938 C 1144 1447.105469 1144 1446.886719 1144.074219 1446.652344 C 1144.207031 1446.28125 1144.558594 1446.039062 1144.949219 1446.039062 C 1145 1446.039062 1145 1446.039062 1145 1446.039062 "/>
<path style=" stroke:none;fill-rule:nonzero;fill:rgb(66.665649%,66.665649%,66.665649%);fill-opacity:1;" d="M 789.171875 1534.867188 L 1134.828125 1534.867188 C 1142.929688 1534.867188 1143.152344 1534.867188 1143.386719 1534.941406 C 1143.753906 1535.074219 1144 1535.425781 1144 1535.816406 C 1144 1535.867188 1144 1535.867188 1144 1535.867188 L 1144 1535.914062 C 1144 1536.308594 1143.753906 1536.65625 1143.386719 1536.789062 C 1143.152344 1536.867188 1142.929688 1536.867188 1142.488281 1536.867188 L 789.171875 1536.867188 C 781.070312 1536.867188 780.847656 1536.867188 780.613281 1536.789062 C 780.246094 1536.65625 780 1536.308594 780 1535.914062 C 780 1535.867188 780 1535.867188 780 1535.867188 L 780 1535.816406 C 780 1535.425781 780.246094 1535.074219 780.613281 1534.941406 C 780.847656 1534.867188 781.070312 1534.867188 781.511719 1534.867188 L 789.171875 1534.867188 "/>
</g>
</svg>
