<?xml version="1.0" encoding="UTF-8"?>
<svg xmlns="http://www.w3.org/2000/svg" xmlns:xlink="http://www.w3.org/1999/xlink" width="1190.5512pt" height="1683.7796pt" viewBox="0 0 1190.5512 1683.7796" version="1.2">
<g id="surface56">
<path style="fill:none;stroke-width:1;stroke-linecap:butt;stroke-linejoin:miter;stroke:rgb(27.058411%,27.058411%,27.058411%);stroke-opacity:1;stroke-miterlimit:10;" d="M 5 6852.499262 L 16.029297 6852.499262 " transform="matrix(2,0,0,2,36,-13452.1704)"/>
<path style="fill:none;stroke-width:1;stroke-linecap:butt;stroke-linejoin:miter;stroke:rgb(27.058411%,27.058411%,27.058411%);stroke-opacity:1;stroke-miterlimit:10;" d="M 22.734375 6852.499262 L 68.253906 6852.499262 " transform="matrix(2,0,0,2,36,-13452.1704)"/>
<path style="fill:none;stroke-width:1;stroke-linecap:butt;stroke-linejoin:miter;stroke:rgb(27.058411%,27.058411%,27.058411%);stroke-opacity:1;stroke-miterlimit:10;" d="M 71.273438 6852.499262 L 245.476562 6852.499262 " transform="matrix(2,0,0,2,36,-13452.1704)"/>
<path style="fill:none;stroke-width:1;stroke-linecap:butt;stroke-linejoin:miter;stroke:rgb(27.058411%,27.058411%,27.058411%);stroke-opacity:1;stroke-miterlimit:10;" d="M 248.496094 6852.499262 L 326.228516 6852.499262 " transform="matrix(2,0,0,2,36,-13452.1704)"/>
<path style="fill:none;stroke-width:1;stroke-linecap:butt;stroke-linejoin:miter;stroke:rgb(27.058411%,27.058411%,27.058411%);stroke-opacity:1;stroke-miterlimit:10;" d="M 5 6999.499262 L 16.478516 6999.499262 " transform="matrix(2,0,0,2,36,-13452.1704)"/>
<path style="fill:none;stroke-width:1;stroke-linecap:butt;stroke-linejoin:miter;stroke:rgb(27.058411%,27.058411%,27.058411%);stroke-opacity:1;stroke-miterlimit:10;" d="M 22.205078 6999.499262 L 156.853516 6999.499262 " transform="matrix(2,0,0,2,36,-13452.1704)"/>
<path style="fill:none;stroke-width:1;stroke-linecap:butt;stroke-linejoin:miter;stroke:rgb(27.058411%,27.058411%,27.058411%);stroke-opacity:1;stroke-miterlimit:10;" d="M 159.873047 6999.499262 L 232.027344 6999.499262 " transform="matrix(2,0,0,2,36,-13452.1704)"/>
<path style="fill:none;stroke-width:1;stroke-linecap:butt;stroke-linejoin:miter;stroke:rgb(27.058411%,27.058411%,27.058411%);stroke-opacity:1;stroke-miterlimit:10;" d="M 5 7457.499262 L 16.466797 7457.499262 " transform="matrix(2,0,0,2,36,-13452.1704)"/>
<path style="fill:none;stroke-width:1;stroke-linecap:butt;stroke-linejoin:miter;stroke:rgb(27.058411%,27.058411%,27.058411%);stroke-opacity:1;stroke-miterlimit:10;" d="M 22.214844 7457.499262 L 387.349609 7457.499262 " transform="matrix(2,0,0,2,36,-13452.1704)"/>
<path style="fill:none;stroke-width:1;stroke-linecap:butt;stroke-linejoin:miter;stroke:rgb(27.058411%,27.058411%,27.058411%);stroke-opacity:1;stroke-miterlimit:10;" d="M 391.240234 7457.499262 L 408.669922 7457.499262 " transform="matrix(2,0,0,2,36,-13452.1704)"/>
<path style="fill:none;stroke-width:1;stroke-linecap:butt;stroke-linejoin:miter;stroke:rgb(27.058411%,27.058411%,27.058411%);stroke-opacity:1;stroke-miterlimit:10;" d="M 414.417969 7457.499262 L 432.904297 7457.499262 " transform="matrix(2,0,0,2,36,-13452.1704)"/>
</g>
</svg>
