<?xml version="1.0" encoding="UTF-8"?>
<svg xmlns="http://www.w3.org/2000/svg" xmlns:xlink="http://www.w3.org/1999/xlink" width="1190.5512pt" height="1683.7796pt" viewBox="0 0 1190.5512 1683.7796" version="1.2">
<g id="surface62">
<path style="fill:none;stroke-width:1;stroke-linecap:butt;stroke-linejoin:miter;stroke:rgb(27.058411%,27.058411%,27.058411%);stroke-opacity:1;stroke-miterlimit:10;" d="M 5 7530.49945 L 16.097656 7530.49945 " transform="matrix(2,0,0,2,36,-14954.4364)"/>
<path style="fill:none;stroke-width:1;stroke-linecap:butt;stroke-linejoin:miter;stroke:rgb(27.058411%,27.058411%,27.058411%);stroke-opacity:1;stroke-miterlimit:10;" d="M 22.554688 7530.49945 L 382.097656 7530.49945 " transform="matrix(2,0,0,2,36,-14954.4364)"/>
<path style="fill:none;stroke-width:1;stroke-linecap:butt;stroke-linejoin:miter;stroke:rgb(27.058411%,27.058411%,27.058411%);stroke-opacity:1;stroke-miterlimit:10;" d="M 5 7640.49945 L 72.273438 7640.49945 " transform="matrix(2,0,0,2,36,-14954.4364)"/>
<path style="fill:none;stroke-width:1;stroke-linecap:butt;stroke-linejoin:miter;stroke:rgb(27.058411%,27.058411%,27.058411%);stroke-opacity:1;stroke-miterlimit:10;" d="M 75.292969 7640.49945 L 117.148438 7640.49945 " transform="matrix(2,0,0,2,36,-14954.4364)"/>
<path style="fill:none;stroke-width:1;stroke-linecap:butt;stroke-linejoin:miter;stroke:rgb(27.058411%,27.058411%,27.058411%);stroke-opacity:1;stroke-miterlimit:10;" d="M 5 7970.49945 L 40.427734 7970.49945 " transform="matrix(2,0,0,2,36,-14954.4364)"/>
<path style="fill:none;stroke-width:1;stroke-linecap:butt;stroke-linejoin:miter;stroke:rgb(27.058411%,27.058411%,27.058411%);stroke-opacity:1;stroke-miterlimit:10;" d="M 43.447266 7970.49945 L 74.980469 7970.49945 " transform="matrix(2,0,0,2,36,-14954.4364)"/>
<path style="fill:none;stroke-width:1;stroke-linecap:butt;stroke-linejoin:miter;stroke:rgb(27.058411%,27.058411%,27.058411%);stroke-opacity:1;stroke-miterlimit:10;" d="M 78.833984 7970.49945 L 93.078125 7970.49945 " transform="matrix(2,0,0,2,36,-14954.4364)"/>
<path style="fill:none;stroke-width:1;stroke-linecap:butt;stroke-linejoin:miter;stroke:rgb(27.058411%,27.058411%,27.058411%);stroke-opacity:1;stroke-miterlimit:10;" d="M 98.742188 7970.49945 L 117.265625 7970.49945 " transform="matrix(2,0,0,2,36,-14954.4364)"/>
</g>
</svg>
